<svg  viewBox="0 0 32 31" fill="none" xmlns="http://www.w3.org/2000/svg">
<path d="M0.46875 22.802C0.727539 22.802 0.9375 22.5923 0.9375 22.3333V8.68066H28.6331V13.8333C28.6331 14.0923 28.843 14.302 29.1018 14.302C29.3608 14.302 29.5706 14.0923 29.5706 13.8333V4.56934C29.5706 2.9978 28.292 1.71924 26.7207 1.71924H25.4915V1.13867C25.4915 0.510742 24.9807 0 24.3528 0H23.4819C22.8542 0 22.3435 0.510742 22.3435 1.13867V1.71924H19.2346V1.13867C19.2346 0.510742 18.7239 0 18.0959 0H17.2251C16.5974 0 16.0867 0.510742 16.0867 1.13867V1.71924H12.9775V1.13867C12.9775 0.510742 12.4668 0 11.8389 0H10.9683C10.3403 0 9.82959 0.510742 9.82959 1.13867V1.71924H6.7207V1.13867C6.7207 0.510742 6.20996 0 5.58203 0H4.71143C4.0835 0 3.57275 0.510742 3.57275 1.13867V1.71924H2.8501C1.27856 1.71924 0 2.9978 0 4.56934V22.3333C0 22.5923 0.209961 22.802 0.46875 22.802ZM23.281 1.13867C23.281 1.02783 23.3713 0.9375 23.4822 0.9375H24.353C24.4639 0.9375 24.554 1.02783 24.554 1.13867V3.41602C24.554 3.52686 24.4639 3.61719 24.353 3.61719H23.4822C23.3713 3.61719 23.281 3.5271 23.281 3.41602V1.13867ZM17.0242 1.13867C17.0242 1.02783 17.1143 0.9375 17.2251 0.9375H18.0959C18.2068 0.9375 18.2971 1.02783 18.2971 1.13867V3.41602C18.2971 3.52686 18.2068 3.61719 18.0959 3.61719H17.2251C17.1143 3.61719 17.0242 3.5271 17.0242 3.41602V1.13867ZM10.7671 1.13867C10.7671 1.02783 10.8574 0.9375 10.9683 0.9375H11.8391C11.95 0.9375 12.0403 1.02783 12.0403 1.13867V3.41602C12.0403 3.52686 11.95 3.61719 11.8391 3.61719H10.9683C10.8574 3.61719 10.7671 3.5271 10.7671 3.41602V1.13867ZM4.51025 1.13867C4.51025 1.02783 4.60059 0.9375 4.71143 0.9375H5.58228C5.69312 0.9375 5.7832 1.02783 5.7832 1.13867V3.41602C5.7832 3.52686 5.69312 3.61719 5.58228 3.61719H4.71143C4.60059 3.61719 4.51025 3.5271 4.51025 3.41602V1.13867ZM2.8501 2.65674H3.57275V3.41602C3.57275 4.04395 4.0835 4.55469 4.71143 4.55469H5.58228C6.20996 4.55469 6.7207 4.04395 6.7207 3.41602V2.65674H9.82983V3.41602C9.82983 4.04395 10.3406 4.55469 10.9683 4.55469H11.8391C12.467 4.55469 12.9778 4.04395 12.9778 3.41602V2.65674H16.0867V3.41602C16.0867 4.04395 16.5974 4.55469 17.2253 4.55469H18.0962C18.7239 4.55469 19.2346 4.04395 19.2346 3.41602V2.65674H22.3435V3.41602C22.3435 4.04395 22.8542 4.55469 23.4822 4.55469H24.353C24.9807 4.55469 25.4915 4.04395 25.4915 3.41602V2.65674H26.7207C27.7754 2.65674 28.6333 3.51465 28.6333 4.56934V7.74316H0.9375V4.56934C0.9375 3.51465 1.79541 2.65674 2.8501 2.65674Z" fill="white"/>
<path d="M5.30688 27.1614H1.21948C1.06396 27.1614 0.9375 27.0349 0.9375 26.8794V24.4695C0.9375 24.2104 0.727539 24.0007 0.46875 24.0007C0.209961 24.0007 0 24.2104 0 24.4695V26.8794C0 27.5518 0.547119 28.0989 1.21948 28.0989H5.30688C5.56567 28.0989 5.77563 27.8889 5.77563 27.6301C5.77563 27.3711 5.56567 27.1614 5.30688 27.1614Z" fill="white"/>
<path d="M5.2915 10.0476H3.66211C3.40332 10.0476 3.19336 10.2576 3.19336 10.5164C3.19336 10.7754 3.40332 10.9851 3.66211 10.9851H5.2915C5.55029 10.9851 5.76025 10.7754 5.76025 10.5164C5.76025 10.2576 5.55029 10.0476 5.2915 10.0476Z" fill="white"/>
<path d="M8.66895 10.9851H10.2983C10.5571 10.9851 10.7671 10.7754 10.7671 10.5164C10.7671 10.2576 10.5571 10.0476 10.2983 10.0476H8.66895C8.41016 10.0476 8.2002 10.2576 8.2002 10.5164C8.2002 10.7754 8.41016 10.9851 8.66895 10.9851Z" fill="white"/>
<path d="M13.6768 10.9851H15.3059C15.5647 10.9851 15.7747 10.7754 15.7747 10.5164C15.7747 10.2576 15.5647 10.0476 15.3059 10.0476H13.6768C13.4177 10.0476 13.208 10.2576 13.208 10.5164C13.208 10.7754 13.4177 10.9851 13.6768 10.9851Z" fill="white"/>
<path d="M18.6836 10.9851H20.313C20.5718 10.9851 20.7817 10.7754 20.7817 10.5164C20.7817 10.2576 20.5718 10.0476 20.313 10.0476H18.6836C18.4248 10.0476 18.2148 10.2576 18.2148 10.5164C18.2148 10.7754 18.4248 10.9851 18.6836 10.9851Z" fill="white"/>
<path d="M25.3196 10.0476H23.6904C23.4314 10.0476 23.2217 10.2576 23.2217 10.5164C23.2217 10.7754 23.4314 10.9851 23.6904 10.9851H25.3196C25.5784 10.9851 25.7883 10.7754 25.7883 10.5164C25.7883 10.2576 25.5784 10.0476 25.3196 10.0476Z" fill="white"/>
<path d="M5.2915 12.4048H3.66211C3.40332 12.4048 3.19336 12.6145 3.19336 12.8735C3.19336 13.1326 3.40332 13.3423 3.66211 13.3423H5.2915C5.55029 13.3423 5.76025 13.1326 5.76025 12.8735C5.76025 12.6145 5.55029 12.4048 5.2915 12.4048Z" fill="white"/>
<path d="M8.66895 13.3423H10.2983C10.5571 13.3423 10.7671 13.1326 10.7671 12.8735C10.7671 12.6145 10.5571 12.4048 10.2983 12.4048H8.66895C8.41016 12.4048 8.2002 12.6145 8.2002 12.8735C8.2002 13.1326 8.41016 13.3423 8.66895 13.3423Z" fill="white"/>
<path d="M13.6768 13.3423H15.3059C15.5647 13.3423 15.7747 13.1326 15.7747 12.8735C15.7747 12.6145 15.5647 12.4048 15.3059 12.4048H13.6768C13.4177 12.4048 13.208 12.6145 13.208 12.8735C13.208 13.1326 13.4177 13.3423 13.6768 13.3423Z" fill="white"/>
<path d="M18.6836 13.3423H20.313C20.5718 13.3423 20.7817 13.1326 20.7817 12.8735C20.7817 12.6145 20.5718 12.4048 20.313 12.4048H18.6836C18.4248 12.4048 18.2148 12.6145 18.2148 12.8735C18.2148 13.1326 18.4248 13.3423 18.6836 13.3423Z" fill="white"/>
<path d="M25.3196 12.4048H23.6904C23.4314 12.4048 23.2217 12.6145 23.2217 12.8735C23.2217 13.1326 23.4314 13.3423 23.6904 13.3423H25.3196C25.5784 13.3423 25.7883 13.1326 25.7883 12.8735C25.7883 12.6145 25.5784 12.4048 25.3196 12.4048Z" fill="white"/>
<path d="M8.68045 22.5447L11.0906 24.9548C11.4392 25.3035 11.9026 25.4954 12.3958 25.4954C12.8889 25.4954 13.3526 25.3035 13.701 24.9548L20.3013 18.3545C21.021 17.6348 21.021 16.4636 20.3013 15.7439C19.5816 15.0242 18.4104 15.0242 17.6907 15.7439L12.3958 21.0388L11.2908 19.9341C10.5713 19.2144 9.40018 19.2144 8.68021 19.9341C7.96072 20.6538 7.96072 21.825 8.68045 22.5447ZM9.34329 20.5969C9.52029 20.4199 9.75296 20.3313 9.98563 20.3313C10.2183 20.3313 10.451 20.4199 10.628 20.5969L12.0642 22.0332C12.2473 22.2163 12.544 22.2163 12.7271 22.0332L18.3535 16.407C18.708 16.0527 19.2842 16.0527 19.6382 16.4067C19.9925 16.761 19.9925 17.3374 19.6382 17.6917L13.0381 24.2917C12.8665 24.4634 12.6385 24.5579 12.3958 24.5579C12.1531 24.5579 11.9251 24.4634 11.7534 24.2917L9.34329 21.8816C8.98904 21.5273 8.98904 20.9512 9.34329 20.5969Z" fill="white"/>
<path d="M29.571 19.71V15.9695C29.571 15.7104 29.3613 15.5007 29.1023 15.5007C28.8435 15.5007 28.6335 15.7104 28.6335 15.9695V19.1121C27.7788 18.6689 26.8088 18.4182 25.7815 18.4182C22.3523 18.4182 19.5625 21.208 19.5625 24.6372C19.5625 25.5354 19.7542 26.3894 20.0981 27.1614H7.44336C7.18457 27.1614 6.97461 27.3711 6.97461 27.6301C6.97461 27.8889 7.18457 28.0989 7.44336 28.0989H20.6174C21.7349 29.7607 23.6326 30.8562 25.7815 30.8562C29.2107 30.8562 32.0005 28.0664 32.0005 24.6372C32.0005 22.6333 31.0474 20.8479 29.571 19.71ZM25.7815 29.9187C22.8691 29.9187 20.5 27.5496 20.5 24.6372C20.5 21.7249 22.8694 19.3557 25.7815 19.3557C28.6936 19.3557 31.063 21.7249 31.063 24.6372C31.063 27.5496 28.6936 29.9187 25.7815 29.9187Z" fill="white"/>
<path d="M25.781 20.033C23.2422 20.033 21.1768 22.0986 21.1768 24.6372C21.1768 27.176 23.2422 29.2415 25.781 29.2415C28.3198 29.2415 30.385 27.176 30.385 24.6372C30.385 22.0986 28.3196 20.033 25.781 20.033ZM26.2007 28.2791C26.2317 28.2163 26.2498 28.146 26.2498 28.0713V27.5002C26.2498 27.2415 26.0398 27.0315 25.781 27.0315C25.5222 27.0315 25.3123 27.2415 25.3123 27.5002V28.0713C25.3123 28.146 25.3301 28.2163 25.3613 28.2791C23.6743 28.0859 22.3323 26.7439 22.1392 25.0569C22.2017 25.0881 22.2722 25.106 22.3469 25.106H22.9177C23.1768 25.106 23.3865 24.8962 23.3865 24.6372C23.3865 24.3782 23.1768 24.1685 22.9177 24.1685H22.3469C22.2722 24.1685 22.2017 24.1865 22.1392 24.2175C22.3323 22.5305 23.6743 21.1885 25.3613 20.9954C25.3301 21.0581 25.3123 21.1284 25.3123 21.2031V21.7742C25.3123 22.0332 25.5222 22.2429 25.781 22.2429C26.0398 22.2429 26.2498 22.0332 26.2498 21.7742V21.2031C26.2498 21.1284 26.2317 21.0581 26.2007 20.9954C27.8877 21.1885 29.2297 22.5305 29.4229 24.2175C29.3601 24.1865 29.2898 24.1685 29.2151 24.1685H28.644C28.3853 24.1685 28.1753 24.3782 28.1753 24.6372C28.1753 24.8962 28.3853 25.106 28.644 25.106H29.2151C29.2898 25.106 29.3601 25.0881 29.4229 25.0569C29.2295 26.7439 27.8877 28.0859 26.2007 28.2791Z" fill="white"/>
<path d="M26.8145 24.1685H26.25V23.6877C26.25 23.429 26.04 23.219 25.7812 23.219C25.5222 23.219 25.3125 23.429 25.3125 23.6877V24.6372C25.3125 24.8962 25.5222 25.106 25.7812 25.106H26.8145C27.0732 25.106 27.2832 24.8962 27.2832 24.6372C27.2832 24.3782 27.0732 24.1685 26.8145 24.1685Z" fill="white"/>
</svg>
