<svg width="56" height="56" viewBox="0 0 56 56" fill="none" xmlns="http://www.w3.org/2000/svg">
<path d="M28 56.0006C43.4217 56.0006 56 43.4226 56 28.001C56 12.579 43.422 0.000976562 28 0.000976562C12.578 0.000976562 0 12.579 0 28.0009C0 43.4225 12.578 56.0006 28 56.0006Z" fill="#F1F1F1"/>
<path d="M18.6496 33.031C16.3147 27.1403 11.41 21.8091 17.5818 11.0706C20.1236 6.64789 24.0063 3.73107 28.0173 4.71862C32.0283 3.73118 35.9111 6.648 38.4529 11.0706C44.6245 21.8091 39.7201 27.1403 37.3849 33.031L28.0177 33.0542L18.6499 33.031H18.6496Z" fill="#666666"/>
<path d="M12.24 42.2398C11.9471 42.7127 11.2164 46.7336 10.4082 49.7821C15.2161 53.6697 21.3355 55.9995 27.9996 55.9995C34.6641 55.9995 40.7834 53.6697 45.5913 49.7821C44.7828 46.7339 44.0522 42.7123 43.7593 42.2398C39.2611 34.9767 32.3276 38.1473 31.8549 29.8359C31.8549 29.8359 29.6243 31.5005 27.9211 31.5157C26.2178 31.5309 24.1422 29.9409 24.1422 29.9409C23.6706 38.2451 16.735 34.9821 12.24 42.2398Z" fill="#FED198"/>
<path d="M31.9759 31.0099C31.92 30.6456 31.8789 30.256 31.8552 29.8362C31.8552 29.8362 29.6246 31.5008 27.9214 31.516C26.2181 31.5312 24.1425 29.9412 24.1425 29.9412C24.1184 30.3686 24.0762 30.764 24.0186 31.1331C24.0622 31.1676 24.1055 31.2026 24.1499 31.2367L24.1494 31.2427C24.2805 31.3569 26.2743 33.0714 27.9211 33.0541C29.5678 33.0713 31.5614 31.3566 31.6928 31.2427L31.6924 31.2367C31.7891 31.1627 31.883 31.0864 31.9756 31.0101L31.9759 31.0099Z" fill="#F0B97D"/>
<path d="M24.1497 29.9465C24.2808 30.0455 26.2746 31.5307 27.9214 31.5158C29.5681 31.5307 31.5617 30.0453 31.693 29.9465C34.1821 28.4954 36.2245 24.2171 35.7634 19.5804C35.3859 15.7822 31.2771 21.3514 28.4154 13.5146C24.3651 21.9991 20.5182 16.9803 20.0796 20.1957C19.5962 23.7385 21.5852 28.1962 24.1497 29.9467V29.9465Z" fill="#FED198"/>
<path d="M20.882 35.8873C18.4308 37.1966 13.9467 37.2362 12.2406 39.9792C11.9434 40.4568 11.1975 46.3085 10.377 49.7567C15.1892 53.6595 21.3211 55.9997 27.9999 55.9997C34.6792 55.9997 40.8106 53.6598 45.6232 49.7567C44.8026 46.3085 43.967 40.5022 43.7595 39.9792C42.6266 37.1218 37.3823 37.0025 34.9286 35.6848C31.1136 49.5258 25.4274 50.4694 20.8822 35.8885L20.8813 35.8874H20.882V35.8873Z" fill="#C83B53"/>
<path d="M22.5153 34.5117C22.3561 38.8179 23.0882 44.9185 27.92 46.4776C23.3711 46.6678 20.4193 40.1135 17.0566 38.3968L22.5152 34.512V34.5117H22.5153Z" fill="white"/>
<path d="M33.5954 34.5117C33.7624 38.8179 32.9938 44.9185 27.9199 46.4776C32.6967 46.6678 35.7965 40.1135 39.3269 38.3968L33.5952 34.512L33.5954 34.5117Z" fill="white"/>
</svg>
