<svg width="167" height="200" viewBox="0 0 167 200" fill="none" xmlns="http://www.w3.org/2000/svg">
<path d="M150.3 33.3333H16.7C7.515 33.3333 0 40.8333 0 50V150C0 159.167 7.515 166.667 16.7 166.667H150.3C159.485 166.667 167 159.167 167 150V50C167 40.8333 159.485 33.3333 150.3 33.3333ZM150.3 150H16.7V50H150.3V150ZM16.7 0H150.3V16.6667H16.7V0ZM16.7 183.333H150.3V200H16.7V183.333ZM83.5 100C95.023 100 104.375 90.6667 104.375 79.1667C104.375 67.6667 95.023 58.3333 83.5 58.3333C71.977 58.3333 62.625 67.6667 62.625 79.1667C62.625 90.6667 71.977 100 83.5 100ZM83.5 70.8333C88.0925 70.8333 91.85 74.5833 91.85 79.1667C91.85 83.75 88.0925 87.5 83.5 87.5C78.9075 87.5 75.15 83.75 75.15 79.1667C75.15 74.5833 78.9075 70.8333 83.5 70.8333ZM125.25 133.25C125.25 115.833 97.6115 108.333 83.5 108.333C69.3885 108.333 41.75 115.833 41.75 133.25V141.667H125.25V133.25ZM56.8635 129.167C61.957 124.833 73.814 120.833 83.5 120.833C93.2695 120.833 105.127 124.833 110.22 129.167H56.8635Z" fill="#323232"/>
</svg>
