<svg viewBox="0 0 30 30" fill="none" xmlns="http://www.w3.org/2000/svg">
<path d="M29.7663 26.6601L29.3383 26.2321C29.2975 26.1913 29.2491 26.1589 29.1958 26.1367C29.1425 26.1146 29.0854 26.1032 29.0277 26.1032C28.97 26.1031 28.9128 26.1144 28.8595 26.1365C28.8061 26.1585 28.7577 26.1908 28.7168 26.2316C28.676 26.2724 28.6436 26.3208 28.6214 26.3741C28.5993 26.4274 28.5879 26.4846 28.5879 26.5423C28.5878 26.6 28.5991 26.6571 28.6212 26.7105C28.6432 26.7638 28.6755 26.8123 28.7163 26.8531L29.0823 27.2191L27.2183 29.0841L24.0483 25.9141L25.9123 24.0501L27.3913 25.5291C27.4322 25.57 27.4806 25.6024 27.534 25.6245C27.5874 25.6466 27.6446 25.6579 27.7023 25.6579C27.7601 25.6579 27.8173 25.6466 27.8706 25.6245C27.924 25.6024 27.9725 25.57 28.0133 25.5291C28.0542 25.4883 28.0866 25.4398 28.1087 25.3864C28.1308 25.3331 28.1421 25.2759 28.1421 25.2181C28.1421 25.1604 28.1308 25.1032 28.1087 25.0498C28.0866 24.9964 28.0542 24.948 28.0133 24.9071L26.2243 23.1181L24.9813 21.8751L23.8813 20.7751C23.8079 20.7016 23.7206 20.6433 23.6246 20.6035C23.5286 20.5637 23.4257 20.5433 23.3218 20.5433C23.2179 20.5433 23.115 20.5637 23.019 20.6035C22.923 20.6433 22.8358 20.7016 22.7623 20.7751L22.7003 20.8371L21.1283 19.2641C22.2724 17.8372 23.07 16.1644 23.4583 14.3771H26.5583C26.6749 14.3771 26.7867 14.3308 26.8691 14.2484C26.9515 14.166 26.9978 14.0542 26.9978 13.9376C26.9978 13.8211 26.9515 13.7093 26.8691 13.6268C26.7867 13.5444 26.6749 13.4981 26.5583 13.4981H23.6153C23.654 13.2188 23.6827 12.9365 23.7013 12.6511H28.6503C28.7669 12.6511 28.8787 12.6048 28.9611 12.5224C29.0435 12.44 29.0898 12.3282 29.0898 12.2116C29.0898 12.0951 29.0435 11.9833 28.9611 11.9008C28.8787 11.8184 28.7669 11.7721 28.6503 11.7721H23.7273C23.7273 11.4875 23.7157 11.2051 23.6923 10.9251H26.5563C26.6729 10.9251 26.7847 10.8788 26.8671 10.7964C26.9495 10.714 26.9958 10.6022 26.9958 10.4856C26.9958 10.3691 26.9495 10.2573 26.8671 10.1748C26.7847 10.0924 26.6729 10.0461 26.5563 10.0461H23.5923C23.2843 8.01892 22.4498 6.108 21.1723 4.50412C21.0999 4.41275 20.9942 4.35389 20.8784 4.34048C20.7626 4.32707 20.6462 4.36022 20.5548 4.43262C20.4635 4.50502 20.4046 4.61076 20.3912 4.72656C20.3778 4.84237 20.4109 4.95875 20.4833 5.05012C22.0246 6.98563 22.8595 9.38895 22.8503 11.8631C22.8505 14.3822 21.9849 16.8247 20.3987 18.7816C18.8124 20.7385 16.6019 22.0908 14.1374 22.612C11.6728 23.1332 9.10406 22.7916 6.86139 21.6445C4.61871 20.4973 2.83839 18.6143 1.81868 16.3109C0.798966 14.0075 0.601816 11.4236 1.26026 8.99213C1.9187 6.56068 3.39273 4.42935 5.4354 2.95523C7.47807 1.48112 9.96529 0.753754 12.4804 0.895008C14.9954 1.03626 17.3856 2.03755 19.2503 3.73112C19.293 3.76993 19.3429 3.79995 19.3972 3.81946C19.4515 3.83898 19.5091 3.84762 19.5667 3.84488C19.6243 3.84214 19.6808 3.82808 19.733 3.8035C19.7852 3.77892 19.832 3.7443 19.8708 3.70162C19.9096 3.65894 19.9396 3.60904 19.9592 3.55476C19.9787 3.50047 19.9873 3.44288 19.9846 3.38526C19.9818 3.32764 19.9678 3.27113 19.9432 3.21894C19.9186 3.16676 19.884 3.11993 19.8413 3.08112C18.4853 1.84974 16.8625 0.949045 15.1002 0.449592C13.3379 -0.0498603 11.4839 -0.134506 9.68342 0.202285C7.88294 0.539076 6.18488 1.28816 4.72226 2.39085C3.25965 3.49354 2.0722 4.9199 1.25293 6.55819C0.43367 8.19647 0.00484123 10.0022 4.07536e-05 11.8339C-0.00475972 13.6656 0.414598 15.4736 1.22526 17.1161C2.03593 18.7587 3.21589 20.1912 4.6727 21.3016C6.12952 22.4119 7.82363 23.1699 9.62232 23.5161V26.4811C9.62232 26.5977 9.66862 26.7095 9.75105 26.7919C9.83347 26.8743 9.94526 26.9206 10.0618 26.9206C10.1784 26.9206 10.2902 26.8743 10.3726 26.7919C10.455 26.7095 10.5013 26.5977 10.5013 26.4811V23.6511C10.7813 23.6831 11.0637 23.7055 11.3483 23.7181V28.5481C11.3483 28.6647 11.3946 28.7765 11.477 28.8589C11.5595 28.9413 11.6713 28.9876 11.7878 28.9876C11.9044 28.9876 12.0162 28.9413 12.0986 28.8589C12.181 28.7765 12.2273 28.6647 12.2273 28.5481V23.7231C12.512 23.7145 12.7943 23.6961 13.0743 23.6681V26.4811C13.0743 26.5977 13.1206 26.7095 13.203 26.7919C13.2855 26.8743 13.3973 26.9206 13.5138 26.9206C13.6304 26.9206 13.7422 26.8743 13.8246 26.7919C13.907 26.7095 13.9533 26.5977 13.9533 26.4811V23.5451C15.898 23.1967 17.7243 22.3664 19.2653 21.1301L20.8383 22.6991L20.7763 22.7611C20.7028 22.8346 20.6445 22.9218 20.6047 23.0178C20.5649 23.1138 20.5445 23.2167 20.5445 23.3206C20.5445 23.4245 20.5649 23.5274 20.6047 23.6234C20.6445 23.7194 20.7028 23.8067 20.7763 23.8801L21.8763 24.9801L23.1193 26.2231L26.6613 29.7651C26.7348 29.8386 26.822 29.8969 26.918 29.9367C27.014 29.9765 27.1169 29.997 27.2208 29.997C27.3247 29.997 27.4276 29.9765 27.5236 29.9367C27.6196 29.8969 27.7069 29.8386 27.7803 29.7651L29.7693 27.7761C29.8428 27.7027 29.9011 27.6154 29.9409 27.5194C29.9807 27.4234 30.0012 27.3205 30.0012 27.2166C30.0012 27.1127 29.9807 27.0098 29.9409 26.9138C29.9011 26.8178 29.8428 26.7306 29.7693 26.6571L29.7663 26.6601ZM20.5543 19.9331L22.0813 21.4601L21.4603 22.0811L19.9333 20.5541C20.148 20.3541 20.3553 20.1468 20.5553 19.9321L20.5543 19.9331ZM23.4273 25.2931L22.8053 24.6721L24.6693 22.8081L25.2903 23.4301L23.4273 25.2931ZM23.3273 21.4611L24.0523 22.1861L22.1883 24.0501L21.4633 23.3251L23.3273 21.4611Z" fill="white"/>
<path d="M5.74447 19.9091C7.51082 21.2346 9.65615 21.9578 11.8645 21.9721C14.5451 21.9722 17.1161 20.9075 19.0117 19.012C20.9073 17.1166 21.9723 14.5458 21.9725 11.8651C21.9726 9.18443 20.9078 6.6135 19.0124 4.71788C17.117 2.82226 14.5461 1.75724 11.8655 1.7571C10.541 1.75418 9.2291 2.01473 8.00623 2.52359C6.78337 3.03244 5.67392 3.77944 4.74247 4.72111C2.84979 6.61611 1.77741 9.17888 1.75647 11.8571C1.72887 14.3393 2.63675 16.7409 4.29947 18.5841C4.33808 18.627 4.38476 18.6618 4.43684 18.6867C4.48891 18.7115 4.54537 18.7258 4.60299 18.7289C4.66061 18.7319 4.71826 18.7235 4.77265 18.7043C4.82703 18.685 4.87709 18.6552 4.91997 18.6166C4.96285 18.578 4.9977 18.5313 5.02254 18.4792C5.04738 18.4272 5.06171 18.3707 5.06473 18.3131C5.06775 18.2555 5.05939 18.1978 5.04013 18.1434C5.02086 18.089 4.99108 18.039 4.95247 17.9961C3.43687 16.3167 2.60928 14.1281 2.63447 11.8661C2.65409 9.41746 3.63486 7.07452 5.36547 5.3421C6.21537 4.4826 7.22774 3.80073 8.34365 3.33617C9.45956 2.87161 10.6567 2.63363 11.8655 2.6361C14.2964 2.66141 16.6191 3.64484 18.3292 5.37277C20.0392 7.1007 20.9984 9.43356 20.9984 11.8646C20.9984 14.2956 20.0392 16.6285 18.3292 18.3564C16.6191 20.0844 14.2964 21.0678 11.8655 21.0931C9.84486 21.0802 7.88182 20.4187 6.26547 19.2061C6.17227 19.1432 6.05847 19.1184 5.94754 19.1369C5.83661 19.1554 5.73701 19.2158 5.66929 19.3055C5.60156 19.3953 5.57088 19.5077 5.58357 19.6194C5.59625 19.7312 5.65134 19.8338 5.73747 19.9061L5.74447 19.9091Z" fill="white"/>
<path d="M13.5331 4.01318H10.4861C10.3074 4.01345 10.1361 4.08454 10.0098 4.21088C9.88344 4.33723 9.81234 4.50851 9.81207 4.68719V6.24018H6.97008C6.7914 6.24045 6.62012 6.31155 6.49377 6.43789C6.36743 6.56423 6.29634 6.73551 6.29607 6.91418V11.6312H5.70708C5.59051 11.6312 5.47872 11.6775 5.3963 11.7599C5.31388 11.8423 5.26758 11.9541 5.26758 12.0707C5.26758 12.1872 5.31388 12.299 5.3963 12.3815C5.47872 12.4639 5.59051 12.5102 5.70708 12.5102H18.3071C18.4236 12.5102 18.5354 12.4639 18.6179 12.3815C18.7003 12.299 18.7466 12.1872 18.7466 12.0707C18.7466 11.9541 18.7003 11.8423 18.6179 11.7599C18.5354 11.6775 18.4236 11.6312 18.3071 11.6312H17.7191V9.14118C17.7188 8.96251 17.6477 8.79123 17.5214 8.66489C17.395 8.53854 17.2237 8.46745 17.0451 8.46719H14.2071V4.68719C14.2068 4.50851 14.1357 4.33723 14.0094 4.21088C13.883 4.08454 13.7117 4.01345 13.5331 4.01318ZM7.17608 7.11819H9.81307V11.6302H7.17608V7.11819ZM10.6921 4.89118H13.3291V11.6292H10.6911L10.6921 4.89118ZM16.8441 9.34418V11.6292H14.2071V9.34518L16.8441 9.34418Z" fill="white"/>
<path d="M16.9314 16.2332H14.8624L13.9224 13.8332C13.8901 13.7501 13.8334 13.6788 13.7596 13.6288C13.6858 13.5788 13.5986 13.5525 13.5095 13.5532C13.4204 13.554 13.3336 13.5819 13.2608 13.6331C13.1879 13.6844 13.1323 13.7566 13.1014 13.8402L11.8174 17.3032L10.9174 14.7592C10.8897 14.6788 10.8393 14.6082 10.7722 14.5559C10.7051 14.5036 10.6243 14.472 10.5396 14.4648C10.4548 14.4576 10.3698 14.4751 10.2949 14.5153C10.22 14.5555 10.1583 14.6166 10.1174 14.6912L9.25543 16.2352H7.19243C7.07587 16.2352 6.96408 16.2815 6.88165 16.3639C6.79923 16.4463 6.75293 16.5581 6.75293 16.6747C6.75293 16.7912 6.79923 16.903 6.88165 16.9854C6.96408 17.0679 7.07587 17.1142 7.19243 17.1142H9.51243C9.59066 17.1142 9.66748 17.0934 9.73498 17.0538C9.80247 17.0143 9.85821 16.9574 9.89643 16.8892L10.4094 15.9692L11.3874 18.7412C11.4175 18.8264 11.4731 18.9002 11.5466 18.9526C11.6202 19.0051 11.7081 19.0335 11.7984 19.0342C11.8882 19.0342 11.9758 19.0067 12.0495 18.9554C12.1232 18.9041 12.1793 18.8314 12.2104 18.7472L13.5164 15.2262L14.1454 16.8342C14.1776 16.9164 14.2339 16.987 14.3068 17.0368C14.3798 17.0866 14.4661 17.1132 14.5544 17.1132H16.9234C17.04 17.1132 17.1518 17.0669 17.2342 16.9844C17.3166 16.902 17.3629 16.7902 17.3629 16.6737C17.3629 16.5571 17.3166 16.4453 17.2342 16.3629C17.1518 16.2805 17.04 16.2342 16.9234 16.2342L16.9314 16.2332Z" fill="white"/>
</svg>
