<svg width="75" height="140" viewBox="0 0 75 140" fill="none" xmlns="http://www.w3.org/2000/svg">
<path d="M70 140C108.554 140 140 108.555 140 70.0009C140 31.446 108.555 0.000976562 70 0.000976562C31.445 0.000976562 0 31.446 0 70.0006C0 108.555 31.445 140 70 140Z" fill="#F1F1F1"/>
<path d="M46.624 82.5758C40.7867 67.849 28.5249 54.5212 43.9544 27.6748C50.3091 16.6181 60.0159 9.3261 70.0434 11.795C80.0709 9.32637 89.7776 16.6184 96.1323 27.6748C111.561 54.5212 99.3003 67.849 93.4622 82.5758L70.0442 82.6338L46.6248 82.5758H46.624Z" fill="#666666"/>
<path d="M30.6 105.598C29.8678 106.78 28.0409 116.833 26.0205 124.454C38.0403 134.173 53.3388 139.997 69.9991 139.997C86.6602 139.997 101.958 134.173 113.978 124.454C111.957 116.833 110.13 106.779 109.398 105.598C98.1528 87.4402 80.819 95.3669 79.6372 74.5884C79.6372 74.5884 74.0607 78.7498 69.8028 78.7878C65.5445 78.8258 60.3555 74.8509 60.3555 74.8509C59.1764 95.6113 41.8375 87.4539 30.6 105.598Z" fill="#FED198"/>
<path d="M79.9403 77.5231C79.8006 76.6123 79.6978 75.6383 79.6384 74.5889C79.6384 74.5889 74.0619 78.7503 69.804 78.7883C65.5457 78.8263 60.3567 74.8514 60.3567 74.8514C60.2965 75.92 60.191 76.9084 60.0469 77.8313C60.156 77.9174 60.2643 78.0049 60.3753 78.0902L60.3739 78.1053C60.7018 78.3907 65.6863 82.6769 69.8031 82.6337C73.92 82.6766 78.904 78.3899 79.2324 78.1053L79.2315 78.0902C79.4733 77.9051 79.7079 77.7145 79.9395 77.5237L79.9403 77.5231Z" fill="#F0B97D"/>
<path d="M60.3747 74.8647C60.7025 75.1122 65.687 78.8252 69.8039 78.788C73.9208 78.8252 78.9047 75.1117 79.2331 74.8647C85.4557 71.237 90.5616 60.5413 89.4091 48.9494C88.4652 39.4541 78.1932 53.3769 71.039 33.7852C60.9134 54.9962 51.296 42.4493 50.1995 50.4878C48.9909 59.3447 53.9634 70.4889 60.3747 74.8653V74.8647V74.8647Z" fill="#FED198"/>
<path d="M52.205 89.7166C46.077 92.9899 34.8668 93.0889 30.6015 99.9464C29.8586 101.141 27.9937 115.77 25.9424 124.39C37.9731 134.147 53.3028 139.998 69.9997 139.998C86.698 139.998 102.026 134.148 114.058 124.39C112.007 115.77 109.918 101.254 109.399 99.9464C106.567 92.8029 93.4558 92.5045 87.3215 89.2104C77.784 123.813 63.5685 126.172 52.2055 89.7196L52.2033 89.7169H52.205V89.7166Z" fill="#C83B53"/>
<path d="M56.2883 86.2778C55.8902 97.0433 57.7206 112.295 69.8 116.192C58.4277 116.668 51.0482 100.282 42.6416 95.9906L56.288 86.2786V86.2778H56.2883Z" fill="white"/>
<path d="M83.9885 86.2778C84.406 97.0433 82.4846 112.295 69.7998 116.192C81.7416 116.668 89.4911 100.282 98.3172 95.9906L83.9879 86.2786L83.9885 86.2778Z" fill="white"/>
</svg>
