<svg viewBox="0 0 34 28" fill="none" xmlns="http://www.w3.org/2000/svg">
<path d="M29.8669 27.91C29.7334 27.9099 29.6032 27.8688 29.4939 27.7922C29.3845 27.7157 29.3013 27.6074 29.2555 27.4821C29.2096 27.3567 29.2034 27.2204 29.2375 27.0913C29.2717 26.9623 29.3447 26.8469 29.4466 26.7607C29.5485 26.6745 29.6743 26.6216 29.8072 26.6092C29.9401 26.5969 30.0736 26.6256 30.1897 26.6916C30.3057 26.7575 30.3987 26.8575 30.4561 26.978C30.5135 27.0985 30.5325 27.2337 30.5105 27.3653C30.4841 27.5172 30.4052 27.6549 30.2876 27.7545C30.1699 27.854 30.021 27.9091 29.8669 27.91Z" fill="white"/>
<path d="M16.7054 24.1844C16.5323 24.1844 16.3663 24.1157 16.2439 23.9933C16.1215 23.8709 16.0527 23.7049 16.0527 23.5317V18.6361C16.0527 18.5504 16.0696 18.4655 16.1024 18.3863C16.1352 18.3071 16.1833 18.2352 16.2439 18.1746C16.3045 18.1139 16.3765 18.0659 16.4557 18.0331C16.5348 18.0003 16.6197 17.9834 16.7054 17.9834C16.7911 17.9834 16.876 18.0003 16.9552 18.0331C17.0344 18.0659 17.1064 18.1139 17.167 18.1746C17.2276 18.2352 17.2756 18.3071 17.3084 18.3863C17.3412 18.4655 17.3581 18.5504 17.3581 18.6361V23.5317C17.3581 23.7049 17.2894 23.8709 17.167 23.9933C17.0446 24.1157 16.8785 24.1844 16.7054 24.1844Z" fill="white"/>
<path d="M32.7563 15.8382H23.359V14.098C23.359 14.0123 23.3421 13.9274 23.3093 13.8482C23.2765 13.7691 23.2284 13.6971 23.1678 13.6365C23.1072 13.5759 23.0353 13.5278 22.9561 13.495C22.8769 13.4622 22.792 13.4453 22.7063 13.4453H10.7018C10.5287 13.4453 10.3627 13.5141 10.2403 13.6365C10.1179 13.7589 10.0491 13.9249 10.0491 14.098V17.5712H0.652694C0.479589 17.5712 0.313573 17.6399 0.19117 17.7624C0.0687658 17.8848 0 18.0508 0 18.2239V27.2545C0 27.4276 0.0687658 27.5936 0.19117 27.716C0.313573 27.8384 0.479589 27.9072 0.652694 27.9072H26.9284C27.0141 27.9072 27.099 27.8903 27.1782 27.8575C27.2573 27.8247 27.3293 27.7766 27.3899 27.716C27.4505 27.6554 27.4986 27.5834 27.5314 27.5042C27.5642 27.425 27.5811 27.3402 27.5811 27.2545C27.5811 27.1688 27.5642 27.0839 27.5314 27.0047C27.4986 26.9255 27.4505 26.8535 27.3899 26.7929C27.3293 26.7323 27.2573 26.6843 27.1782 26.6515C27.099 26.6187 27.0141 26.6018 26.9284 26.6018H23.359V17.1427H32.1036V27.2581C32.1036 27.4312 32.1724 27.5972 32.2948 27.7196C32.4172 27.842 32.5832 27.9108 32.7563 27.9108C32.9294 27.9108 33.0955 27.842 33.2179 27.7196C33.3403 27.5972 33.409 27.4312 33.409 27.2581V16.4909C33.409 16.3178 33.3403 16.1518 33.2179 16.0294C33.0955 15.907 32.9294 15.8382 32.7563 15.8382ZM1.30539 18.8802H10.05V26.6054H1.30539V18.8802ZM11.3545 14.7498H22.0545V26.6054H11.3545V14.7498Z" fill="white"/>
<path d="M7.16274 14.187C7.02 14.1868 6.8787 14.1584 6.74697 14.1034L5.67761 13.6604L4.60733 14.1034C4.43666 14.174 4.25075 14.1996 4.06736 14.1778C3.88397 14.1561 3.70922 14.0877 3.5598 13.9791C3.41039 13.8706 3.29129 13.7256 3.21388 13.5579C3.13648 13.3902 3.10335 13.2055 3.11767 13.0214L3.20844 11.8667L2.4559 10.9861C2.33559 10.8457 2.25339 10.6767 2.21718 10.4953C2.18097 10.314 2.19196 10.1264 2.2491 9.95048C2.30624 9.7746 2.40761 9.61635 2.54349 9.49091C2.67937 9.36547 2.8452 9.27704 3.02507 9.23411L4.15072 8.96178L4.75621 7.97411C4.8528 7.81657 4.98818 7.68645 5.14942 7.59617C5.31066 7.5059 5.49236 7.4585 5.67715 7.4585C5.86194 7.4585 6.04364 7.5059 6.20488 7.59617C6.36612 7.68645 6.50151 7.81657 6.59809 7.97411L7.20358 8.96722L8.33014 9.23956C8.50986 9.28271 8.67551 9.37126 8.81123 9.49673C8.94695 9.6222 9.04821 9.7804 9.10532 9.95619C9.16243 10.132 9.17348 10.3195 9.13741 10.5008C9.10134 10.682 9.01936 10.851 8.89932 10.9916L8.14677 11.8721L8.23755 13.0268C8.24903 13.1752 8.22979 13.3243 8.18104 13.4649C8.13229 13.6055 8.05506 13.7345 7.95419 13.8439C7.85332 13.9533 7.73097 14.0407 7.5948 14.1006C7.45862 14.1606 7.31153 14.1918 7.16274 14.1924V14.187ZM3.68594 10.4197L4.37494 11.2267C4.48726 11.3582 4.54277 11.529 4.52927 11.7015L4.44575 12.759L5.42615 12.3523C5.586 12.2862 5.76558 12.2862 5.92543 12.3523L6.90583 12.759L6.82232 11.7015C6.80881 11.529 6.86432 11.3582 6.97664 11.2267L7.66564 10.4197L6.6335 10.1718C6.54958 10.1517 6.47049 10.1151 6.40084 10.0641C6.33118 10.0132 6.27233 9.94888 6.22772 9.875L5.67307 8.96722L5.11932 9.875C5.02884 10.0224 4.88354 10.1279 4.71536 10.1682L3.68594 10.4197Z" fill="white"/>
<path d="M26.2455 14.1862C26.0967 14.1857 25.9496 14.1544 25.8134 14.0945C25.6772 14.0345 25.5549 13.9471 25.454 13.8377C25.3531 13.7283 25.2759 13.5993 25.2271 13.4587C25.1784 13.3181 25.1591 13.169 25.1706 13.0206L25.2614 11.8659L24.5089 10.9854C24.3888 10.8448 24.3068 10.6759 24.2708 10.4946C24.2347 10.3133 24.2457 10.1258 24.3029 9.95C24.36 9.77421 24.4612 9.61602 24.5969 9.49055C24.7327 9.36508 24.8983 9.27653 25.078 9.23338L26.2046 8.96104L26.8101 7.97338C26.9067 7.81584 27.0421 7.68572 27.2033 7.59544C27.3645 7.50517 27.5463 7.45776 27.731 7.45776C27.9158 7.45776 28.0975 7.50517 28.2588 7.59544C28.42 7.68572 28.5554 7.81584 28.652 7.97338L29.2575 8.96104L30.3831 9.23338C30.5628 9.27653 30.7285 9.36508 30.8642 9.49055C30.9999 9.61602 31.1012 9.77421 31.1583 9.95C31.2154 10.1258 31.2264 10.3133 31.1904 10.4946C31.1543 10.6759 31.0723 10.8448 30.9523 10.9854L30.1997 11.8659L30.2905 13.0206C30.3051 13.2048 30.2721 13.3897 30.1948 13.5575C30.1175 13.7253 29.9984 13.8705 29.8489 13.9791C29.6994 14.0876 29.5245 14.156 29.341 14.1777C29.1575 14.1993 28.9715 14.1735 28.8009 14.1027L27.7306 13.6597L26.6612 14.1027C26.5294 14.1575 26.3882 14.1859 26.2455 14.1862ZM27.7306 12.3008C27.8163 12.3008 27.9011 12.3178 27.9802 12.3507L28.9606 12.7574L28.8771 11.6998C28.8636 11.5274 28.9191 11.3566 29.0314 11.225L29.7204 10.418L28.6883 10.1702C28.605 10.1503 28.5264 10.1141 28.4571 10.0638C28.3878 10.0135 28.3291 9.95001 28.2843 9.87699L27.7297 8.96921L27.1759 9.87699C27.1312 9.95001 27.0724 10.0135 27.0031 10.0638C26.9338 10.1141 26.8553 10.1503 26.772 10.1702L25.7398 10.418L26.4297 11.225C26.5422 11.3569 26.5977 11.528 26.584 11.7007L26.5005 12.7583L27.4809 12.3516C27.56 12.3184 27.6448 12.3011 27.7306 12.3008Z" fill="white"/>
<path d="M14.1023 10.8019C13.9091 10.8013 13.7182 10.7608 13.5413 10.6829C13.3645 10.6051 13.2057 10.4916 13.0747 10.3496C12.9438 10.2075 12.8435 10.04 12.7803 9.85746C12.717 9.67492 12.6921 9.48129 12.7071 9.28868L12.8823 7.0628L11.4298 5.36525C11.275 5.18286 11.1694 4.96386 11.1231 4.72911C11.0769 4.49437 11.0915 4.25169 11.1655 4.02418C11.2396 3.79668 11.3707 3.59192 11.5463 3.42941C11.7219 3.26691 11.9362 3.15206 12.1687 3.0958L14.3402 2.57474L15.5085 0.669307C15.6338 0.464821 15.8095 0.295906 16.0187 0.178721C16.2279 0.0615358 16.4638 0 16.7036 0C16.9434 0 17.1792 0.0615358 17.3884 0.178721C17.5977 0.295906 17.7734 0.464821 17.8987 0.669307L19.0651 2.57564L21.2366 3.09671C21.4691 3.15296 21.6834 3.26781 21.859 3.43032C22.0346 3.59283 22.1657 3.79758 22.2398 4.02509C22.3139 4.25259 22.3284 4.49528 22.2822 4.73002C22.2359 4.96477 22.1304 5.18377 21.9755 5.36616L20.523 7.06371L20.6983 9.28958C20.7172 9.52879 20.6744 9.76886 20.574 9.98679C20.4736 10.2047 20.3189 10.3932 20.1248 10.5343C19.9306 10.6753 19.7035 10.7641 19.4652 10.7922C19.2269 10.8203 18.9854 10.7868 18.7638 10.6948L16.7013 9.8397L14.6379 10.6948C14.467 10.766 14.2838 10.8027 14.0987 10.8029L14.1023 10.8019ZM16.7049 1.30112C16.6882 1.30049 16.6717 1.30448 16.6571 1.31264C16.6425 1.32081 16.6305 1.33285 16.6223 1.34742L15.3151 3.48252C15.2703 3.55553 15.2116 3.61901 15.1423 3.66933C15.073 3.71964 14.9945 3.75579 14.9112 3.77573L12.4765 4.36034C12.4603 4.36408 12.4453 4.37195 12.4331 4.38319C12.4208 4.39443 12.4117 4.40865 12.4066 4.42446C12.4015 4.44028 12.4005 4.45715 12.4039 4.47344C12.4072 4.48972 12.4147 4.50486 12.4257 4.51739L14.0515 6.42372C14.1072 6.48897 14.1495 6.56457 14.176 6.64619C14.2025 6.72782 14.2126 6.81386 14.2058 6.8994L14.0088 9.39489C14.0076 9.41137 14.0106 9.42788 14.0176 9.44288C14.0245 9.45787 14.0352 9.47084 14.0485 9.48057C14.0619 9.49029 14.0775 9.49645 14.0939 9.49845C14.1103 9.50045 14.127 9.49824 14.1423 9.49202L16.4544 8.53249C16.6142 8.46632 16.7938 8.46632 16.9537 8.53249L19.2667 9.49111C19.282 9.49761 19.2987 9.50003 19.3152 9.49814C19.3317 9.49625 19.3475 9.49012 19.3609 9.48033C19.3743 9.47055 19.385 9.45746 19.3919 9.44232C19.3988 9.42719 19.4016 9.41053 19.4001 9.39398L19.2031 6.89849C19.1963 6.81295 19.2065 6.72691 19.2329 6.64529C19.2594 6.56366 19.3017 6.48807 19.3575 6.42281L20.9842 4.51648C20.9951 4.50395 21.0026 4.48881 21.006 4.47253C21.0093 4.45624 21.0084 4.43937 21.0033 4.42355C20.9981 4.40774 20.989 4.39352 20.9768 4.38228C20.9645 4.37104 20.9496 4.36317 20.9334 4.35943L18.4987 3.77482C18.4154 3.75489 18.3369 3.71873 18.2675 3.66842C18.1982 3.61811 18.1395 3.55463 18.0947 3.48161L16.7866 1.34651C16.7779 1.33278 16.7656 1.32166 16.751 1.31431C16.7365 1.30696 16.7203 1.30366 16.704 1.30475L16.7049 1.30112Z" fill="white"/>
</svg>
