<svg width="45" height="52" viewBox="0 0 45 52" fill="none" xmlns="http://www.w3.org/2000/svg">
<path d="M22.5 26C19.4062 26 16.875 23.66 16.875 20.8C16.875 17.94 19.4062 15.6 22.5 15.6C25.5938 15.6 28.125 17.94 28.125 20.8C28.125 23.66 25.5938 26 22.5 26ZM39.375 21.32C39.375 11.882 31.9219 5.2 22.5 5.2C13.0781 5.2 5.625 11.882 5.625 21.32C5.625 27.404 11.1094 35.464 22.5 45.084C33.8906 35.464 39.375 27.404 39.375 21.32ZM22.5 0C34.3125 0 45 8.372 45 21.32C45 29.952 37.4906 40.17 22.5 52C7.50938 40.17 0 29.952 0 21.32C0 8.372 10.6875 0 22.5 0Z" fill="white"/>
</svg>
