<svg viewBox="0 0 62 93" fill="none" xmlns="http://www.w3.org/2000/svg">
<path d="M36.4717 62.0003L36.4717 65.1003L40.1187 65.1003L40.1187 62.0003L36.4717 62.0003Z" fill="white"/>
<path d="M43.7656 62.0003L43.7656 65.1003L47.4127 65.1003L47.4127 62.0003L43.7656 62.0003Z" fill="white"/>
<path d="M51.0586 62.0001L51.0586 65.1001L54.7057 65.1001L54.7057 62.0001L51.0586 62.0001Z" fill="white"/>
<path d="M29.1777 62.0001L29.1777 65.1001L32.8248 65.1001L32.8248 62.0001L29.1777 62.0001Z" fill="white"/>
<path d="M21.8809 62.0003L21.8809 65.1003L25.5279 65.1003L25.5279 62.0003L21.8809 62.0003Z" fill="white"/>
<path d="M14.5879 62.0001L14.5879 65.1001L18.2349 65.1001L18.2349 62.0001L14.5879 62.0001Z" fill="white"/>
<path d="M7.29297 62.0001L7.29297 65.1001L10.94 65.1001L10.94 62.0001L7.29297 62.0001Z" fill="white"/>
<path d="M7.29297 83.6998L7.29297 86.7998L10.94 86.7998L10.94 83.6998L7.29297 83.6998Z" fill="white"/>
<path d="M7.29297 6.20005L7.29297 9.30005L10.94 9.30005L10.94 6.20005L7.29297 6.20005Z" fill="white"/>
<path d="M51.0586 6.20005L51.0586 9.30005L54.7057 9.30005L54.7057 6.20005L51.0586 6.20005Z" fill="white"/>
<path d="M51.0586 83.6998L51.0586 86.7998L54.7057 86.7998L54.7057 83.6998L51.0586 83.6998Z" fill="white"/>
<path d="M21.8823 1.55012C21.8823 0.694135 21.0659 0.000123534 20.0588 0.000123578L1.82353 0.000124375C0.816481 0.000124419 -4.03482e-06 0.694136 -3.9974e-06 1.55012L-6.77526e-08 91.45C-3.03362e-08 92.306 0.816485 93 1.82353 93L20.0588 93C21.0659 93 21.8824 92.306 21.8824 91.45C21.8824 87.1699 25.9645 83.7 31 83.7C36.0354 83.7 40.1176 87.1699 40.1176 91.45C40.1176 92.306 40.9341 93 41.9412 93L60.1765 93C61.1835 93 62 92.306 62 91.45L62 1.55012C62 0.694133 61.1835 0.00012178 60.1765 0.000121824L41.9412 0.000122621C40.9341 0.000122665 40.1176 0.694134 40.1176 1.55012C40.1176 5.83025 36.0354 9.30011 31 9.30011C25.9645 9.30011 21.8823 5.83025 21.8823 1.55012ZM32.8135 12.2986C38.4231 11.6143 42.8301 7.86811 43.6352 3.10012L58.3529 3.10012L58.3529 89.9L43.6352 89.9C42.6337 83.9685 36.1649 79.8502 29.1865 80.7015C23.5771 81.3859 19.1698 85.1318 18.3648 89.9L3.64706 89.9L3.64705 3.10012L18.3648 3.10012C19.3663 9.03157 25.8351 13.1499 32.8135 12.2986Z" fill="white"/>
<path d="M12.7646 46.5004C12.7646 49.9246 16.0304 52.7004 20.0588 52.7004C24.0872 52.7004 27.3529 49.9246 27.3529 46.5004C27.3529 43.0763 24.0872 40.3005 20.0588 40.3005C16.0304 40.3005 12.7646 43.0763 12.7646 46.5004ZM23.7058 46.5004C23.7058 48.2126 22.0731 49.6004 20.0588 49.6004C18.0444 49.6004 16.4117 48.2126 16.4117 46.5004C16.4117 44.7883 18.0444 43.4005 20.0588 43.4005C22.0731 43.4005 23.7058 44.7883 23.7058 46.5004Z" fill="white"/>
<path d="M34.6484 27.8999C34.6484 31.324 37.9142 34.0999 41.9426 34.0999C45.971 34.0999 49.2367 31.324 49.2367 27.8999C49.2367 24.4757 45.971 21.6999 41.9426 21.6999C37.9142 21.6999 34.6484 24.4757 34.6484 27.8999ZM45.5896 27.8999C45.5896 29.612 43.9569 30.9999 41.9426 30.9999C39.9282 30.9999 38.2955 29.612 38.2955 27.8999C38.2955 26.1877 39.9282 24.7999 41.9426 24.7999C43.9569 24.7999 45.5896 26.1877 45.5896 27.8999Z" fill="white"/>
<path d="M15.1152 25.8964L44.291 50.6958L46.8699 48.5038L17.694 23.7044L15.1152 25.8964Z" fill="white"/>
</svg>
