<svg viewBox="0 0 25 31" fill="none" xmlns="http://www.w3.org/2000/svg">
<path d="M19.9384 13.1913C20.1785 13.2402 20.4125 13.0854 20.4616 12.8449C20.5712 12.308 20.6267 11.7555 20.6267 11.2026C20.6267 6.70825 16.9812 3.05176 12.5003 3.05176C8.01946 3.05176 4.37402 6.70825 4.37402 11.2026C4.37402 15.697 8.01946 19.3535 12.5003 19.3535C15.5545 19.3535 18.323 17.6613 19.7253 14.9374C19.8376 14.7192 19.7523 14.451 19.5348 14.3383C19.3173 14.2256 19.0499 14.3112 18.9376 14.5293C17.6881 16.9565 15.2215 18.4642 12.5004 18.4642C8.50834 18.4642 5.26059 15.2067 5.26059 11.2026C5.26059 7.19843 8.50834 3.94087 12.5004 3.94087C16.4925 3.94087 19.7402 7.19843 19.7402 11.2026C19.7402 11.6956 19.6908 12.1882 19.5931 12.6665C19.544 12.9071 19.6987 13.1421 19.9384 13.1913Z" fill="white"/>
<path d="M17.4321 9.54894C17.3799 9.38766 17.2408 9.27028 17.0735 9.24623L14.1846 8.83117L12.8984 6.20362C12.7514 5.87709 12.2494 5.87714 12.1026 6.20362L10.8163 8.83111L7.92747 9.24617C7.57203 9.28547 7.4176 9.7646 7.68155 10.0052L9.77542 12.0442L9.27626 14.9282C9.20368 15.2783 9.60923 15.5751 9.92004 15.3974L12.5004 14.0299L15.0808 15.3974C15.3912 15.5751 15.7974 15.2783 15.7246 14.9282L15.2254 12.0442L17.3193 10.0052C17.4406 9.88718 17.4844 9.71017 17.4321 9.54894ZM14.4399 11.5699C14.3348 11.6722 14.2869 11.8201 14.3119 11.9649L14.6967 14.1882L12.7075 13.134C12.5779 13.0654 12.4229 13.0654 12.2933 13.134L10.3041 14.1882L10.6889 11.9649C10.7139 11.8201 10.666 11.6722 10.5609 11.5699L8.94665 9.99799L11.1737 9.67796C11.3188 9.6571 11.4442 9.56579 11.5088 9.43382L12.5004 7.40826L13.492 9.43382C13.5566 9.56573 13.682 9.6571 13.827 9.67796L16.0541 9.99799L14.4399 11.5699Z" fill="white"/>
<path d="M24.939 26.427L20.6066 18.9004C22.5036 16.8917 23.6689 14.1811 23.6689 11.2025C23.6688 5.02538 18.6586 0 12.5001 0C10.6053 0 8.7333 0.484684 7.08647 1.40169C6.8724 1.52089 6.79522 1.79152 6.91407 2.00623C7.03286 2.22082 7.30271 2.29824 7.51672 2.17916C9.03223 1.33526 10.7554 0.889227 12.5001 0.889227C18.1698 0.889227 22.7823 5.5158 22.7823 11.2025C22.7823 16.8893 18.1698 21.5159 12.5001 21.5159C6.83038 21.5159 2.21782 16.8893 2.21782 11.2025C2.21782 8.15168 3.55391 5.27413 5.88359 3.30774C6.07088 3.14965 6.09494 2.86915 5.93731 2.68133C5.77969 2.49345 5.50009 2.46922 5.3128 2.62743C2.78253 4.76315 1.33131 7.88862 1.33131 11.2025C1.33131 14.1862 2.5005 16.901 4.40324 18.9108L3.17626 21.0424C2.88223 21.5359 3.66023 21.9921 3.94397 21.487L5.05938 19.5493C6.39381 20.7473 8.016 21.6287 9.80781 22.0752L5.98288 28.7202L5.00447 25.6315C4.93515 25.4125 4.7108 25.2827 4.48705 25.3319L1.33102 26.0263L2.90959 23.2838C3.03199 23.0712 2.95936 22.7993 2.74736 22.6765C2.53531 22.5538 2.26427 22.6266 2.14188 22.8392L0.061065 26.4542C-0.136331 26.7717 0.177139 27.2032 0.539898 27.1108L4.28197 26.2873L5.44205 29.9496C5.54347 30.3098 6.07124 30.3685 6.24836 30.0372L10.7234 22.2627C11.3021 22.3559 11.8954 22.405 12.4999 22.405C13.1094 22.405 13.7074 22.355 14.2906 22.2603L16.9784 26.9297C17.0605 27.0724 17.2094 27.152 17.3626 27.152C17.4378 27.152 17.514 27.1328 17.5838 27.0924C17.7958 26.9696 17.8685 26.6977 17.7461 26.4851L15.2058 22.0719C16.9969 21.6231 18.6179 20.7397 19.9509 19.5401L23.6688 25.9992L20.5128 25.3047C20.2891 25.2555 20.0648 25.3854 19.9954 25.6044L19.017 28.693L18.7803 28.2819C18.6579 28.0693 18.3868 27.9965 18.1749 28.1192C17.9629 28.242 17.8902 28.5139 18.0126 28.7265L18.7514 30.0101C18.9286 30.3415 19.4563 30.2827 19.5577 29.9225L20.7178 26.2603L24.4599 27.0837C24.823 27.1758 25.1362 26.7446 24.939 26.427Z" fill="white"/>
</svg>
