<svg width="139" height="140" viewBox="0 0 139 140" fill="none" xmlns="http://www.w3.org/2000/svg">
<path d="M54.2187 1.4424C51.0928 1.43872 47.9969 2.01345 45.108 3.13369C42.2191 4.25393 39.5941 5.8977 37.3831 7.97091C35.172 10.0441 33.4185 12.5061 32.2227 15.2159C31.0269 17.9257 30.4125 20.8302 30.4144 23.7631V39.7091H11.748C11.3231 39.7073 10.913 39.8548 10.5982 40.1225C10.2834 40.3903 10.0867 40.7588 10.047 41.1557L1.56678 136.818C1.55476 137.037 1.58937 137.257 1.66862 137.464C1.74786 137.671 1.87016 137.862 2.02841 138.024C2.18666 138.186 2.37771 138.318 2.59047 138.41C2.80323 138.503 3.03346 138.555 3.2678 138.563H105.185C105.419 138.554 105.649 138.502 105.861 138.409C106.073 138.316 106.264 138.185 106.422 138.023C106.58 137.86 106.703 137.67 106.782 137.464C106.862 137.257 106.897 137.037 106.886 136.818L106.463 132.184H103.066L103.329 135.371H5.11305L13.3396 42.8964H30.4144V55.7997C28.3517 56.1947 26.5187 57.2942 25.2709 58.8851C24.023 60.4761 23.4493 62.445 23.6608 64.4103C23.8723 66.3756 24.8541 68.1972 26.4158 69.5219C27.9774 70.8467 30.0077 71.5801 32.113 71.5801C34.2182 71.5801 36.2485 70.8467 37.8101 69.5219C39.3718 68.1972 40.3536 66.3756 40.5651 64.4103C40.7766 62.445 40.2029 60.4761 38.955 58.8851C37.7072 57.2942 35.8742 56.1947 33.8115 55.7997V42.8964H74.5961V52.4631H77.9931V42.8964H95.0878L95.9384 52.4631H99.3901L98.3954 41.1511C98.3432 40.7589 98.1428 40.3973 97.8307 40.1318C97.5186 39.8664 97.1155 39.7148 96.6944 39.7044H78.0031V23.7631C78.005 20.8318 77.3912 17.9288 76.1967 15.2202C75.0022 12.5116 73.2504 10.0505 71.0415 7.97752C68.8326 5.90455 66.2099 4.26039 63.3233 3.13905C60.4367 2.01771 57.3429 1.44117 54.2187 1.4424V1.4424ZM54.2187 4.62973C56.8998 4.61924 59.5566 5.10697 62.0357 6.06479C64.5149 7.02262 66.7673 8.43157 68.6632 10.2104C70.559 11.9891 72.0607 14.1026 73.0815 16.4287C74.1024 18.7548 74.6222 21.2475 74.611 23.7631V39.7091H33.8264V23.7631C33.8152 21.2475 34.335 18.7548 35.3559 16.4287C36.3767 14.1026 37.8784 11.9891 39.7742 10.2104C41.6701 8.43157 43.9225 7.02262 46.4017 6.06479C48.8808 5.10697 51.5376 4.61924 54.2187 4.62973V4.62973ZM32.1353 58.8424C33.1436 58.8424 34.1293 59.1229 34.9677 59.6485C35.806 60.1741 36.4595 60.9212 36.8453 61.7952C37.2312 62.6693 37.3322 63.631 37.1354 64.5589C36.9387 65.4868 36.4532 66.3391 35.7402 67.0081C35.0272 67.677 34.1189 68.1326 33.1299 68.3172C32.141 68.5017 31.1159 68.407 30.1844 68.045C29.2528 67.6829 28.4566 67.0698 27.8964 66.2832C27.3363 65.4966 27.0373 64.5718 27.0373 63.6257C27.034 62.9967 27.1636 62.3733 27.4186 61.7916C27.6737 61.2098 28.049 60.6813 28.5231 60.2365C28.9972 59.7917 29.5605 59.4395 30.1805 59.2002C30.8005 58.9609 31.4649 58.8393 32.1353 58.8424ZM66.1109 57.0971L59.3168 127.251C59.3047 127.471 59.3394 127.691 59.4186 127.898C59.4978 128.105 59.6202 128.295 59.7784 128.457C59.9367 128.62 60.1277 128.751 60.3405 128.844C60.5532 128.936 60.7834 128.988 61.0178 128.996H135.768C136.002 128.987 136.232 128.935 136.444 128.842C136.657 128.75 136.848 128.618 137.006 128.456C137.164 128.294 137.286 128.104 137.366 127.897C137.445 127.69 137.48 127.471 137.469 127.251L130.67 57.0971C130.618 56.7049 130.417 56.3433 130.105 56.0778C129.793 55.8124 129.39 55.6607 128.969 55.6504H67.792C67.3697 55.6569 66.9643 55.8072 66.6513 56.0733C66.3384 56.3395 66.1392 56.7033 66.091 57.0971H66.1109ZM69.3488 58.8424H127.432L133.898 125.809H62.873L69.3488 58.8424ZM81.4001 65.2217C80.949 65.2217 80.5163 65.3899 80.1973 65.6892C79.8783 65.9885 79.6991 66.3944 79.6991 66.8177V73.1971C79.6991 77.8476 81.6681 82.3077 85.1729 85.5962C88.6778 88.8846 93.4313 90.7321 98.3879 90.7321C103.344 90.7321 108.098 88.8846 111.603 85.5962C115.108 82.3077 117.077 77.8476 117.077 73.1971V66.8131C117.089 66.5965 117.055 66.3799 116.975 66.1763C116.895 65.9728 116.772 65.7866 116.613 65.6292C116.454 65.4718 116.263 65.3464 116.05 65.2607C115.838 65.175 115.609 65.1308 115.378 65.1308C115.147 65.1308 114.918 65.175 114.706 65.2607C114.494 65.3464 114.302 65.4718 114.143 65.6292C113.984 65.7866 113.861 65.9728 113.782 66.1763C113.702 66.3799 113.667 66.5965 113.68 66.8131V73.1924C113.68 76.997 112.069 80.6458 109.202 83.3361C106.334 86.0264 102.445 87.5377 98.3904 87.5377C94.3354 87.5377 90.4466 86.0264 87.5793 83.3361C84.712 80.6458 83.1012 76.997 83.1012 73.1924V66.8131C83.1012 66.3898 82.922 65.9838 82.6029 65.6845C82.2839 65.3852 81.8513 65.2171 81.4001 65.2171V65.2217Z" fill="white"/>
<path d="M2.99144 140C2.57809 139.992 2.17076 139.905 1.79414 139.745C1.41752 139.585 1.07945 139.355 0.800418 139.069C0.521387 138.783 0.307205 138.446 0.170856 138.08C0.034507 137.714 -0.0211697 137.326 0.00719723 136.939L8.53217 40.95C8.5994 40.2519 8.94326 39.6028 9.49579 39.1311C10.0483 38.6593 10.7694 38.3992 11.5164 38.402H29.014V23.5993C29.014 17.3404 31.664 11.3378 36.3809 6.91208C41.0978 2.48635 47.4954 0 54.1662 0C60.8369 0 67.2345 2.48635 71.9514 6.91208C76.6684 11.3378 79.3183 17.3404 79.3183 23.5993V38.3973H96.8109C97.5526 38.4067 98.2651 38.6698 98.8146 39.1373C99.3641 39.6047 99.7128 40.2444 99.7952 40.936L100.924 53.5967H94.8712L94.0207 43.9973H79.3133V53.5967H73.3449V44.002H34.9775V54.8333C37.2048 55.5012 39.1043 56.894 40.3333 58.7604C41.5622 60.6269 42.0397 62.844 41.6795 65.0117C41.3193 67.1794 40.1451 69.1549 38.369 70.5818C36.5928 72.0086 34.3315 72.7928 31.9933 72.7928C29.655 72.7928 27.3938 72.0086 25.6176 70.5818C23.8414 69.1549 22.6673 67.1794 22.3071 65.0117C21.9469 62.844 22.4243 60.6269 23.6533 58.7604C24.8822 56.894 26.7817 55.5012 29.009 54.8333V44.0067H14.3017L6.24923 134.4H102.073L101.805 131.199H107.773L108.3 136.948C108.327 137.334 108.269 137.721 108.132 138.086C107.995 138.451 107.78 138.786 107.502 139.071C107.223 139.356 106.886 139.585 106.51 139.745C106.134 139.905 105.728 139.991 105.316 140H2.99144ZM11.5313 40.8007C11.475 40.7994 11.4189 40.8088 11.3665 40.8281C11.314 40.8475 11.2663 40.8765 11.2259 40.9135C11.1856 40.9505 11.1536 40.9946 11.1317 41.0433C11.1099 41.0921 11.0986 41.1444 11.0986 41.1973L2.57364 137.149C2.57354 137.204 2.58538 137.259 2.60845 137.311C2.63152 137.362 2.66535 137.409 2.70793 137.447C2.78036 137.53 2.88351 137.583 2.99641 137.597H105.321C105.438 137.583 105.544 137.528 105.619 137.443C105.7 137.367 105.746 137.265 105.749 137.158L105.425 133.597H104.57L104.834 136.799H3.47886L11.9342 41.5987H31.5655V56.728L30.5459 56.924C28.7861 57.2606 27.2221 58.1983 26.1574 59.5554C25.0926 60.9124 24.6029 62.5922 24.7831 64.2688C24.9634 65.9454 25.8008 67.4995 27.133 68.6297C28.4652 69.7599 30.1972 70.3857 31.9933 70.3857C33.7893 70.3857 35.5213 69.7599 36.8535 68.6297C38.1857 67.4995 39.0231 65.9454 39.2034 64.2688C39.3837 62.5922 38.8939 60.9124 37.8292 59.5554C36.7644 58.1983 35.2005 57.2606 33.4406 56.924L32.421 56.728V41.5987H75.8815V51.198H76.732V41.5987H96.3732L97.2238 51.198H98.119L97.2238 41.146C97.1993 41.0544 97.1458 40.9719 97.0703 40.9094C96.9948 40.8469 96.9009 40.8073 96.801 40.796H76.7569V23.5993C76.7569 17.9766 74.3762 12.5841 70.1387 8.6082C65.9012 4.6323 60.1539 2.39867 54.1612 2.39867C48.1684 2.39867 42.4212 4.6323 38.1836 8.6082C33.9461 12.5841 31.5655 17.9766 31.5655 23.5993V40.8007H11.5313ZM60.9702 130.401C60.5569 130.393 60.1495 130.306 59.7729 130.146C59.3963 129.986 59.0582 129.756 58.7792 129.47C58.5002 129.184 58.286 128.847 58.1496 128.481C58.0133 128.115 57.9576 127.726 57.986 127.339L64.8199 56.8727C64.9093 56.1978 65.2574 55.5765 65.7992 55.1248C66.341 54.6731 67.0395 54.4219 67.7643 54.418H129.19C129.932 54.4273 130.644 54.6905 131.194 55.1579C131.743 55.6254 132.092 56.265 132.174 56.9567L138.993 127.358C139.021 127.745 138.965 128.133 138.828 128.499C138.691 128.865 138.477 129.201 138.198 129.487C137.919 129.773 137.582 130.003 137.205 130.163C136.829 130.324 136.422 130.411 136.009 130.419H60.9603L60.9702 130.401ZM67.3664 57.2133L60.5524 127.559C60.5569 127.667 60.6016 127.771 60.6788 127.852C60.7559 127.933 60.8608 127.986 60.9752 128.002H136.014C136.131 127.988 136.237 127.933 136.312 127.848C136.393 127.772 136.439 127.67 136.442 127.563L129.623 57.1667C129.6 57.0733 129.547 56.9888 129.472 56.9245C129.396 56.8602 129.301 56.8193 129.2 56.8073H67.8041C67.5206 56.8027 67.4261 57.0173 67.3664 57.2133ZM135.551 127.213H61.4577L68.1921 57.6147H128.817L135.551 127.213ZM64.2479 124.815H132.751L126.484 60.0133H70.5148L64.2479 124.815ZM98.497 92.0127C93.1839 92.0077 88.0899 90.0252 84.333 86.5002C80.5761 82.9752 78.4631 78.1957 78.4579 73.2107V66.7987C78.4579 66.0561 78.7723 65.3439 79.3319 64.8188C79.8916 64.2937 80.6506 63.9987 81.4421 63.9987C82.2336 63.9987 82.9926 64.2937 83.5523 64.8188C84.1119 65.3439 84.4263 66.0561 84.4263 66.7987V73.1967C84.3912 74.951 84.7291 76.6942 85.4203 78.3246C86.1115 79.9549 87.1421 81.4396 88.452 82.6919C89.7618 83.9442 91.3246 84.939 93.0489 85.618C94.7732 86.2971 96.6245 86.6469 98.4945 86.6469C100.365 86.6469 102.216 86.2971 103.94 85.618C105.665 84.939 107.227 83.9442 108.537 82.6919C109.847 81.4396 110.878 79.9549 111.569 78.3246C112.26 76.6942 112.598 74.951 112.563 73.1967V66.7987C112.563 66.0561 112.877 65.3439 113.437 64.8188C113.996 64.2937 114.756 63.9987 115.547 63.9987C116.338 63.9987 117.098 64.2937 117.657 64.8188C118.217 65.3439 118.531 66.0561 118.531 66.7987V73.1967C118.526 78.1809 116.414 82.9597 112.658 86.4846C108.902 90.0094 103.809 91.9925 98.497 91.9987V92.0127ZM81.4421 66.4113C81.3287 66.4113 81.2199 66.4536 81.1396 66.5289C81.0594 66.6041 81.0144 66.7062 81.0144 66.8127V73.2107C81.0144 77.5605 82.856 81.7321 86.1342 84.8079C89.4124 87.8837 93.8585 89.6117 98.4945 89.6117C103.131 89.6117 107.577 87.8837 110.855 84.8079C114.133 81.7321 115.975 77.5605 115.975 73.2107V66.7987C115.975 66.3553 115.124 66.3553 115.124 66.7987V73.1967C115.124 77.3342 113.372 81.3023 110.254 84.228C107.136 87.1537 102.907 88.7973 98.497 88.7973C94.0872 88.7973 89.858 87.1537 86.7398 84.228C83.6216 81.3023 81.8698 77.3342 81.8698 73.1967V66.7987C81.8686 66.6938 81.8236 66.5936 81.7446 66.5195C81.6656 66.4454 81.5588 66.4032 81.4471 66.402L81.4421 66.4113ZM31.9883 69.6127C30.7232 69.6127 29.4866 69.2607 28.4347 68.6013C27.3829 67.9418 26.5631 67.0045 26.079 65.9079C25.5948 64.8113 25.4682 63.6047 25.715 62.4405C25.9618 61.2764 26.571 60.207 27.4655 59.3677C28.36 58.5284 29.4997 57.9569 30.7405 57.7253C31.9812 57.4938 33.2673 57.6126 34.436 58.0668C35.6048 58.521 36.6037 59.2903 37.3066 60.2772C38.0094 61.2641 38.3845 62.4244 38.3845 63.6113C38.3793 65.1994 37.7039 66.7208 36.5061 67.8429C35.3084 68.9649 33.6858 69.5962 31.9933 69.5987L31.9883 69.6127ZM31.9883 60.0133C31.2299 60.0133 30.4884 60.2243 29.8578 60.6197C29.2272 61.0151 28.7357 61.577 28.4454 62.2344C28.1552 62.8919 28.0793 63.6153 28.2272 64.3133C28.3752 65.0112 28.7404 65.6523 29.2767 66.1555C29.813 66.6587 30.4963 67.0014 31.2402 67.1402C31.984 67.279 32.7551 67.2078 33.4558 66.9355C34.1565 66.6631 34.7554 66.202 35.1768 65.6103C35.5981 65.0186 35.823 64.323 35.823 63.6113C35.8304 63.1367 35.7364 62.6654 35.5468 62.2253C35.3572 61.7852 35.0757 61.3851 34.7189 61.0486C34.362 60.7121 33.9371 60.4459 33.469 60.2657C33.0009 60.0855 32.4992 59.9949 31.9933 59.9993L31.9883 60.0133ZM75.8815 40.8007H32.421V23.5993C32.421 18.1888 34.7117 12.9999 38.7893 9.17412C42.8668 5.34831 48.3972 3.199 54.1637 3.199C59.9302 3.199 65.4605 5.34831 69.5381 9.17412C73.6156 12.9999 75.9063 18.1888 75.9063 23.5993L75.8815 40.8007ZM34.9526 38.402H73.3449V23.5993C73.3449 18.8256 71.3237 14.2474 67.7261 10.8719C64.1285 7.49635 59.249 5.6 54.1612 5.6C49.0734 5.6 44.1939 7.49635 40.5963 10.8719C36.9986 14.2474 34.9775 18.8256 34.9775 23.5993L34.9526 38.402Z" fill="white"/>
</svg>
