<svg viewBox="0 0 125 124" fill="none" xmlns="http://www.w3.org/2000/svg">
<path d="M77.0447 50.1842C76.1054 50.1935 75.1782 50.3894 74.3216 50.7598H59.0088L57.9253 47.2926H79.1446C80.0584 47.3052 80.9518 47.0336 81.6915 46.5182C82.4312 46.0028 82.9774 45.2714 83.2484 44.4332L88.1338 27.9857C88.3073 27.4094 88.3316 26.8011 88.2046 26.2137C88.0776 25.6263 87.8031 25.0776 87.4051 24.6152C86.999 24.1373 86.4871 23.7525 85.9065 23.4888C85.3259 23.2252 84.6913 23.0893 84.0491 23.0911H50.7724C50.6477 23.0911 50.5374 23.1602 50.4128 23.1648L48.7444 17.8097C48.5773 17.3141 48.2493 16.8831 47.8083 16.5797C47.3674 16.2764 46.8368 16.1169 46.2945 16.1245H39.247C38.5931 16.1095 37.9596 16.3429 37.4838 16.774C37.0081 17.205 36.7286 17.7989 36.7061 18.4267C36.7224 19.0586 36.9992 19.6583 37.4756 20.0943C37.952 20.5303 38.5891 20.7669 39.247 20.752H44.372L53.6681 50.5342C52.3719 50.8744 51.2249 51.6078 50.3981 52.6251C49.5713 53.6424 49.1089 54.8891 49.08 56.1793C49.119 57.8171 49.833 59.3731 51.0653 60.5057C52.2977 61.6384 53.9476 62.2551 55.6529 62.2205C57.3558 62.2589 59.0051 61.6476 60.2397 60.5205C61.4744 59.3934 62.1937 57.8423 62.2401 56.207C62.2005 55.9348 62.1412 55.6655 62.0627 55.4012H70.6061C70.5277 55.6655 70.4685 55.9348 70.4287 56.207C70.4752 57.8423 71.1944 59.3934 72.4291 60.5205C73.6637 61.6476 75.3131 62.2589 77.016 62.2205C78.7189 62.2589 80.3682 61.6476 81.6028 60.5205C82.8375 59.3934 83.5568 57.8423 83.6032 56.207C83.563 54.5737 82.8499 53.0224 81.6204 51.8933C80.3909 50.7643 78.7454 50.1496 77.0447 50.1842V50.1842ZM82.9512 27.7463L78.5213 42.6512H56.5637L51.8942 27.7463H82.9512ZM55.6768 57.5837C55.4838 57.588 55.2917 57.5556 55.1117 57.4885C54.9317 57.4213 54.7673 57.3207 54.6279 57.1923C54.4885 57.064 54.3768 56.9105 54.2993 56.7406C54.2218 56.5707 54.18 56.3878 54.1763 56.2024C54.18 56.0169 54.2218 55.834 54.2993 55.6641C54.3768 55.4943 54.4885 55.3407 54.6279 55.2124C54.7673 55.0841 54.9317 54.9834 55.1117 54.9163C55.2917 54.8491 55.4838 54.8167 55.6768 54.821C56.0664 54.8136 56.4431 54.9548 56.7244 55.2138C57.0057 55.4727 57.1686 55.8282 57.1774 56.2024C57.1725 56.3892 57.129 56.5733 57.0495 56.7439C56.97 56.9145 56.8561 57.0683 56.7143 57.1963C56.5725 57.3243 56.4057 57.4241 56.2235 57.4898C56.0413 57.5555 55.8474 57.5859 55.6529 57.5791L55.6768 57.5837ZM77.0447 57.5837C76.6552 57.5911 76.2784 57.4499 75.9971 57.1909C75.7159 56.932 75.553 56.5765 75.5441 56.2024C75.553 55.8282 75.7159 55.4727 75.9971 55.2138C76.2784 54.9548 76.6552 54.8136 77.0447 54.821C77.2378 54.8167 77.4298 54.8491 77.6098 54.9163C77.7898 54.9834 77.9543 55.0841 78.0937 55.2124C78.2331 55.3407 78.3447 55.4943 78.4222 55.6641C78.4997 55.834 78.5416 56.0169 78.5453 56.2024C78.541 56.3874 78.4987 56.5698 78.4209 56.7392C78.3431 56.9085 78.2313 57.0615 78.092 57.1893C77.9526 57.3172 77.7884 57.4174 77.6087 57.4843C77.429 57.5512 77.2374 57.5834 77.0447 57.5791V57.5837Z" fill="white"/>
<path d="M70.9834 80.1963C70.9834 81.481 69.5164 82.5216 67.7042 82.5216H28.0175C26.2053 82.5216 24.7383 81.481 24.7383 80.1963C24.7383 78.9116 26.2053 77.894 28.0175 77.894H67.6994C69.5116 77.8756 70.9834 78.9209 70.9834 80.1963Z" fill="white"/>
<path d="M100.261 80.1963C100.261 81.481 98.7944 82.5216 96.987 82.5216H86.5596C84.7473 82.5216 83.2803 81.481 83.2803 80.1963C83.2803 78.9116 84.7473 77.894 86.5596 77.894H96.9678C98.7944 77.8756 100.261 78.9209 100.261 80.1963Z" fill="white"/>
<path d="M70.9834 91.3807C70.9834 92.6608 69.5164 93.683 67.7042 93.683H28.0175C26.2053 93.683 24.7383 92.6424 24.7383 91.3807C24.7383 90.1191 26.2053 89.0554 28.0175 89.0554H67.6994C69.5116 89.0554 70.9834 90.0914 70.9834 91.3807Z" fill="white"/>
<path d="M100.261 91.3807C100.261 92.6608 98.7944 93.683 96.987 93.683H86.5596C84.7473 93.683 83.2803 92.6424 83.2803 91.3807C83.2803 90.1191 84.7473 89.0554 86.5596 89.0554H96.9678C98.7944 89.0554 100.261 90.0914 100.261 91.3807Z" fill="white"/>
<path d="M70.9834 101.686C70.9834 102.966 69.5164 103.988 67.7042 103.988H28.0175C26.2053 103.988 24.7383 102.947 24.7383 101.686C24.7383 100.424 26.2053 99.3833 28.0175 99.3833H67.6994C69.5116 99.3649 70.9834 100.401 70.9834 101.686Z" fill="white"/>
<path d="M100.261 101.686C100.261 102.966 98.7944 103.988 96.987 103.988H86.5596C84.7473 103.988 83.2803 102.947 83.2803 101.686C83.2803 100.424 84.7473 99.3833 86.5596 99.3833H96.9678C98.7944 99.3649 100.261 100.401 100.261 101.686Z" fill="white"/>
<path d="M123.964 5.40966L117.732 0.597908C117.035 0.224564 116.254 0.0198203 115.456 0.0013684C114.659 -0.0170835 113.868 0.151312 113.153 0.492005L106.13 4.07894L100.377 0.611723C99.6784 0.234233 98.8946 0.0260325 98.0934 0.0051712C97.2923 -0.0156901 96.4979 0.151416 95.7792 0.492005L88.7604 4.07894L83.0073 0.611723C82.3093 0.233088 81.5254 0.0242293 80.724 0.00336202C79.9226 -0.0175053 79.128 0.150253 78.4097 0.492005L71.3909 4.07894L65.6378 0.611723C64.9404 0.233872 64.1573 0.0254436 63.3569 0.00457839C62.5564 -0.0162868 61.7627 0.151044 61.0449 0.492005L54.007 4.07894L48.2539 0.611723C47.5571 0.234655 46.7749 0.0266578 45.9753 0.00579476C45.1758 -0.0150683 44.383 0.151833 43.6659 0.492005L36.6423 4.07894L30.8892 0.611723C30.1914 0.235013 29.4085 0.0272468 28.6082 0.00638757C27.808 -0.0144716 27.0145 0.152204 26.2964 0.492005L19.2728 4.07894L13.5197 0.611723C12.8229 0.234655 12.0407 0.0266578 11.2412 0.00579476C10.4416 -0.0150683 9.64884 0.151833 8.93168 0.492005L1.26088 5.30375C0.914218 5.43938 0.613178 5.66411 0.390753 5.95327C0.168328 6.24244 0.0331136 6.58486 0 6.94296V117.047C0.0316239 117.407 0.166076 117.752 0.388522 118.043C0.610968 118.335 0.912798 118.562 1.26088 118.7L8.93168 123.511C9.61282 123.839 10.3655 124.007 11.1274 124C11.9699 124.011 12.7992 123.799 13.5246 123.387L19.2776 119.92L26.2964 123.507C26.9775 123.835 27.7302 124.002 28.4921 123.995C29.3345 124.006 30.1639 123.794 30.8892 123.383L36.6423 119.915L43.6611 123.502C44.3425 123.834 45.0975 124.003 45.8616 123.995C46.704 124.006 47.5334 123.794 48.2587 123.383L54.0118 119.915L61.0354 123.502C61.7165 123.83 62.4692 123.998 63.2311 123.99C64.0735 124.001 64.9029 123.79 65.6282 123.378L71.3813 119.911L78.4001 123.498C79.0812 123.826 79.8339 123.993 80.5958 123.986C81.4383 123.997 82.2676 123.785 82.9929 123.373L88.746 119.906L95.7648 123.493C96.4444 123.826 97.1979 123.995 97.9605 123.986C98.803 123.997 99.6323 123.785 100.358 123.373L106.111 119.906L113.129 123.493C113.812 123.822 114.566 123.989 115.33 123.981C116.172 123.991 117.001 123.779 117.727 123.369L123.96 118.557C124.255 118.409 124.505 118.191 124.687 117.923C124.87 117.655 124.977 117.347 125 117.028V6.93836C124.985 6.61795 124.881 6.30718 124.699 6.03835C124.517 5.76952 124.263 5.55244 123.964 5.40966V5.40966ZM119.851 116.149L115.148 118.99L108.129 115.403C107.973 115.34 107.813 115.287 107.65 115.246C107.464 115.171 107.273 115.106 107.079 115.053C106.836 115.003 106.589 114.972 106.341 114.961C106.163 114.961 105.991 114.929 105.809 114.929C105.551 114.938 105.295 114.965 105.042 115.012C104.874 115.044 104.696 115.062 104.533 115.104C104.312 115.173 104.097 115.261 103.891 115.366C103.759 115.406 103.631 115.457 103.507 115.518L97.7544 118.985L90.7308 115.398C90.5756 115.334 90.4153 115.282 90.2514 115.242C90.0678 115.166 89.8787 115.103 89.6857 115.053C89.4393 115.003 89.1892 114.973 88.9378 114.961C88.7556 114.961 88.5878 114.929 88.4056 114.929C88.1481 114.938 87.8917 114.965 87.6386 115.012C87.4612 115.044 87.2886 115.067 87.1208 115.104C86.9013 115.175 86.6881 115.262 86.4831 115.366C86.3511 115.406 86.2228 115.457 86.0996 115.518L80.3465 118.981L73.3278 115.394C73.1788 115.336 73.0268 115.285 72.8723 115.242C72.6867 115.167 72.4961 115.104 72.3018 115.053C72.0588 115.001 71.8119 114.967 71.5635 114.952C71.3813 114.952 71.2135 114.919 71.0313 114.919C70.7737 114.93 70.5173 114.959 70.2643 115.007C70.0916 115.028 69.9203 115.059 69.7513 115.099C69.5288 115.164 69.3136 115.251 69.1088 115.357C68.9793 115.401 68.8528 115.454 68.7301 115.513L62.977 118.976L55.9583 115.389C55.8093 115.331 55.6573 115.28 55.5028 115.237C55.3187 115.158 55.1278 115.095 54.9323 115.048C54.6861 114.996 54.436 114.962 54.1844 114.947C54.0022 114.947 53.8248 114.915 53.6522 114.915C53.3946 114.925 53.1381 114.954 52.8852 115.002C52.703 115.035 52.5352 115.053 52.3674 115.094C52.1421 115.162 51.9238 115.25 51.7154 115.357C51.588 115.397 51.4645 115.448 51.3462 115.509L45.5931 118.971L38.5744 115.384C38.4306 115.315 38.2628 115.292 38.095 115.233C37.9129 115.153 37.7235 115.09 37.5293 115.044C37.2832 114.991 37.0331 114.957 36.7814 114.942C36.604 114.942 36.4314 114.91 36.254 114.91C35.9963 114.92 35.7398 114.949 35.4869 114.998C35.3126 115.019 35.1398 115.05 34.9691 115.09C34.7467 115.155 34.5315 115.242 34.3267 115.348C34.1956 115.392 34.0675 115.445 33.9432 115.504L28.1901 118.967L21.1665 115.38C21.0179 115.321 20.8658 115.27 20.7111 115.228C20.5277 115.147 20.3367 115.084 20.1406 115.039C19.8944 114.987 19.6444 114.953 19.3927 114.938C19.2105 114.938 19.0427 114.906 18.8605 114.906C18.6029 114.916 18.3465 114.946 18.0934 114.993C17.916 115.025 17.7434 115.044 17.5757 115.085C17.3592 115.156 17.1492 115.244 16.9476 115.348C16.8141 115.388 16.6842 115.439 16.5593 115.5L10.8062 118.967L5.05312 116.029V7.94215L10.8062 5.00445L16.5593 8.46707C16.7592 8.56944 16.9677 8.65568 17.1826 8.72492C17.3257 8.7918 17.473 8.85024 17.6236 8.8999C17.9989 8.98903 18.383 9.03995 18.7694 9.05184C18.8413 9.05184 18.9037 9.07487 18.9708 9.07487C19.0378 9.07826 19.1051 9.07826 19.1721 9.07487C19.5179 9.06652 19.8618 9.02331 20.1981 8.94594C20.3324 8.90911 20.4522 8.85385 20.5817 8.8078C20.7753 8.75595 20.9644 8.68975 21.1474 8.60981L28.1709 5.02287L33.924 8.49009C34.1239 8.59249 34.3324 8.67874 34.5472 8.74794C34.6959 8.79859 34.8253 8.87687 34.9883 8.92291C35.3644 9.01691 35.7504 9.06943 36.1389 9.07947C36.206 9.07947 36.2684 9.1025 36.3355 9.1025H36.3595C36.4266 9.1025 36.4889 9.1025 36.5608 9.1025C36.905 9.09427 37.2473 9.05104 37.582 8.97356C37.7162 8.93673 37.8361 8.88148 37.9655 8.83543C38.1604 8.78249 38.351 8.71632 38.536 8.63743L45.5548 5.0505L51.3079 8.51772C51.5021 8.61913 51.706 8.7024 51.9167 8.76637C52.0749 8.82162 52.2044 8.9045 52.3626 8.94594C52.739 9.03799 53.1249 9.08896 53.5132 9.09789C53.5799 9.10902 53.6471 9.11671 53.7146 9.12092C53.7865 9.12092 53.844 9.12091 53.9159 9.09789C54.2601 9.08962 54.6024 9.04641 54.9371 8.96896C55.0696 8.93116 55.1993 8.88502 55.3254 8.83083C55.5173 8.77572 55.7062 8.71116 55.8912 8.63743L62.9099 5.0505L68.663 8.51312C68.863 8.6155 69.0714 8.70175 69.2862 8.77097C69.4294 8.83787 69.5767 8.8963 69.7273 8.94594C70.0996 9.04272 70.4828 9.0953 70.8683 9.1025C70.9403 9.1025 70.9978 9.12552 71.0697 9.12552C71.1416 9.12552 71.1991 9.12552 71.2711 9.12552C71.6156 9.1142 71.9578 9.0679 72.2922 8.98738C72.4254 8.95162 72.5553 8.90542 72.6806 8.84925C72.8737 8.79794 73.0628 8.73331 73.2463 8.65586L80.265 5.06892L86.0181 8.53614C86.2174 8.63402 86.4241 8.71714 86.6366 8.78478C86.7814 8.8516 86.9303 8.91003 87.0824 8.95976C87.4563 9.0565 87.8411 9.10907 88.2282 9.1163C88.3001 9.1163 88.3625 9.13933 88.4296 9.13933C88.4967 9.14272 88.5639 9.14272 88.631 9.13933C88.9767 9.13095 89.3206 9.08774 89.6569 9.01041C89.7912 8.97357 89.911 8.91831 90.0405 8.87227C90.2341 8.82039 90.4232 8.7542 90.6062 8.67427L97.6297 5.08734L103.383 8.55455C103.511 8.61585 103.644 8.66817 103.781 8.71111C103.979 8.81522 104.188 8.89859 104.404 8.95976C104.585 9.00519 104.77 9.04055 104.955 9.06566C105.196 9.10941 105.439 9.1371 105.684 9.14854C105.868 9.14577 106.052 9.13348 106.235 9.1117C106.482 9.10024 106.727 9.06944 106.969 9.01961C107.162 8.97094 107.351 8.90783 107.535 8.83083C107.698 8.78979 107.858 8.73746 108.014 8.67427L115.033 5.08734L119.736 7.92834V116.149H119.851Z" fill="white"/>
</svg>
