<svg viewBox="0 0 29 32" fill="none" xmlns="http://www.w3.org/2000/svg">
<path d="M3.10728 28.4822H2.07157C1.93422 28.4822 1.8025 28.5367 1.70539 28.6339C1.60827 28.731 1.55371 28.8627 1.55371 29C1.55371 29.1374 1.60827 29.2691 1.70539 29.3662C1.8025 29.4633 1.93422 29.5179 2.07157 29.5179H3.10728C3.24463 29.5179 3.37635 29.4633 3.47346 29.3662C3.57058 29.2691 3.62514 29.1374 3.62514 29C3.62514 28.8627 3.57058 28.731 3.47346 28.6339C3.37635 28.5367 3.24463 28.4822 3.10728 28.4822Z" fill="white"/>
<path d="M3.10728 26.9285H2.07157C1.93422 26.9285 1.8025 26.983 1.70539 27.0801C1.60827 27.1773 1.55371 27.309 1.55371 27.4463C1.55371 27.5837 1.60827 27.7154 1.70539 27.8125C1.8025 27.9096 1.93422 27.9642 2.07157 27.9642H3.10728C3.24463 27.9642 3.37635 27.9096 3.47346 27.8125C3.57058 27.7154 3.62514 27.5837 3.62514 27.4463C3.62514 27.309 3.57058 27.1773 3.47346 27.0801C3.37635 26.983 3.24463 26.9285 3.10728 26.9285Z" fill="white"/>
<path d="M12.4286 28.4822H11.3929C11.2555 28.4822 11.1238 28.5367 11.0267 28.6339C10.9296 28.731 10.875 28.8627 10.875 29C10.875 29.1374 10.9296 29.2691 11.0267 29.3662C11.1238 29.4633 11.2555 29.5179 11.3929 29.5179H12.4286C12.5659 29.5179 12.6976 29.4633 12.7948 29.3662C12.8919 29.2691 12.9464 29.1374 12.9464 29C12.9464 28.8627 12.8919 28.731 12.7948 28.6339C12.6976 28.5367 12.5659 28.4822 12.4286 28.4822Z" fill="white"/>
<path d="M12.4286 26.9285H11.3929C11.2555 26.9285 11.1238 26.983 11.0267 27.0801C10.9296 27.1773 10.875 27.309 10.875 27.4463C10.875 27.5837 10.9296 27.7154 11.0267 27.8125C11.1238 27.9096 11.2555 27.9642 11.3929 27.9642H12.4286C12.5659 27.9642 12.6976 27.9096 12.7948 27.8125C12.8919 27.7154 12.9464 27.5837 12.9464 27.4463C12.9464 27.309 12.8919 27.1773 12.7948 27.0801C12.6976 26.983 12.5659 26.9285 12.4286 26.9285Z" fill="white"/>
<path d="M21.7499 28.4822H20.7141C20.5768 28.4822 20.4451 28.5367 20.348 28.6339C20.2508 28.731 20.1963 28.8627 20.1963 29C20.1963 29.1374 20.2508 29.2691 20.348 29.3662C20.4451 29.4633 20.5768 29.5179 20.7141 29.5179H21.7499C21.8872 29.5179 22.0189 29.4633 22.116 29.3662C22.2132 29.2691 22.2677 29.1374 22.2677 29C22.2677 28.8627 22.2132 28.731 22.116 28.6339C22.0189 28.5367 21.8872 28.4822 21.7499 28.4822Z" fill="white"/>
<path d="M21.7499 26.9285H20.7141C20.5768 26.9285 20.4451 26.983 20.348 27.0801C20.2508 27.1773 20.1963 27.309 20.1963 27.4463C20.1963 27.5837 20.2508 27.7154 20.348 27.8125C20.4451 27.9096 20.5768 27.9642 20.7141 27.9642H21.7499C21.8872 27.9642 22.0189 27.9096 22.116 27.8125C22.2132 27.7154 22.2677 27.5837 22.2677 27.4463C22.2677 27.309 22.2132 27.1773 22.116 27.0801C22.0189 26.983 21.8872 26.9285 21.7499 26.9285Z" fill="white"/>
<path d="M28.4821 19.6786H24.3393V9.83929C24.3393 9.70194 24.2847 9.57022 24.1876 9.47311C24.0905 9.37599 23.9588 9.32143 23.8214 9.32143H19.6786V0.517857C19.6786 0.380513 19.624 0.248794 19.5269 0.151677C19.4298 0.0545598 19.2981 0 19.1607 0H9.83929C9.70194 0 9.57022 0.0545598 9.4731 0.151677C9.37599 0.248794 9.32143 0.380513 9.32143 0.517857V9.32143H5.17857C5.04123 9.32143 4.90951 9.37599 4.81239 9.47311C4.71527 9.57022 4.66071 9.70194 4.66071 9.83929V19.6786H0.517857C0.380513 19.6786 0.248794 19.7331 0.151677 19.8302C0.0545599 19.9274 0 20.0591 0 20.1964V30.5536C0 30.6909 0.0545599 30.8226 0.151677 30.9198C0.248794 31.0169 0.380513 31.0714 0.517857 31.0714H28.4821C28.6195 31.0714 28.7512 31.0169 28.8483 30.9198C28.9454 30.8226 29 30.6909 29 30.5536V20.1964C29 20.0591 28.9454 19.9274 28.8483 19.8302C28.7512 19.7331 28.6195 19.6786 28.4821 19.6786ZM23.3036 20.7143H24.3393V22.7857H23.3036V20.7143ZM23.3036 19.6786H15.0179V10.3571H17.6071V12.9464C17.6071 13.0838 17.6617 13.2155 17.7588 13.3126C17.8559 13.4097 17.9877 13.4643 18.125 13.4643H20.1964C20.3338 13.4643 20.4655 13.4097 20.5626 13.3126C20.6597 13.2155 20.7143 13.0838 20.7143 12.9464V10.3571H23.3036V19.6786ZM13.9821 20.7143H15.0179V22.7857H13.9821V20.7143ZM19.6786 10.3571V12.4286H18.6429V10.3571H19.6786ZM15.0179 1.03571V2.07143H13.9821V1.03571H15.0179ZM10.3571 1.03571H12.9464V2.58929C12.9464 2.72663 13.001 2.85835 13.0981 2.95547C13.1952 3.05258 13.3269 3.10714 13.4643 3.10714H15.5357C15.6731 3.10714 15.8048 3.05258 15.9019 2.95547C15.999 2.85835 16.0536 2.72663 16.0536 2.58929V1.03571H18.6429V9.32143H10.3571V1.03571ZM10.3571 10.3571V12.4286H9.32143V10.3571H10.3571ZM5.69643 10.3571H8.28571V12.9464C8.28571 13.0838 8.34027 13.2155 8.43739 13.3126C8.53451 13.4097 8.66623 13.4643 8.80357 13.4643H10.875C11.0123 13.4643 11.1441 13.4097 11.2412 13.3126C11.3383 13.2155 11.3929 13.0838 11.3929 12.9464V10.3571H13.9821V19.6786H5.69643V10.3571ZM5.69643 20.7143V22.7857H4.66071V20.7143H5.69643ZM1.03571 20.7143H3.625V23.3036C3.625 23.4409 3.67956 23.5726 3.77668 23.6698C3.87379 23.7669 4.00551 23.8214 4.14286 23.8214H6.21429C6.35163 23.8214 6.48335 23.7669 6.58047 23.6698C6.67758 23.5726 6.73214 23.4409 6.73214 23.3036V20.7143H9.32143V30.0357H1.03571V20.7143ZM10.3571 20.7143H12.9464V23.3036C12.9464 23.4409 13.001 23.5726 13.0981 23.6698C13.1952 23.7669 13.3269 23.8214 13.4643 23.8214H15.5357C15.6731 23.8214 15.8048 23.7669 15.9019 23.6698C15.999 23.5726 16.0536 23.4409 16.0536 23.3036V20.7143H18.6429V30.0357H10.3571V20.7143ZM27.9643 30.0357H19.6786V20.7143H22.2679V23.3036C22.2679 23.4409 22.3224 23.5726 22.4195 23.6698C22.5167 23.7669 22.6484 23.8214 22.7857 23.8214H24.8571C24.9945 23.8214 25.1262 23.7669 25.2233 23.6698C25.3204 23.5726 25.375 23.4409 25.375 23.3036V20.7143H27.9643V30.0357Z" fill="white"/>
<path d="M6.73172 19.1607H7.76744C7.90478 19.1607 8.0365 19.1062 8.13362 19.009C8.23074 18.9119 8.2853 18.7802 8.2853 18.6429C8.2853 18.5055 8.23074 18.3738 8.13362 18.2767C8.0365 18.1796 7.90478 18.125 7.76744 18.125H6.73172C6.59438 18.125 6.46266 18.1796 6.36554 18.2767C6.26843 18.3738 6.21387 18.5055 6.21387 18.6429C6.21387 18.7802 6.26843 18.9119 6.36554 19.009C6.46266 19.1062 6.59438 19.1607 6.73172 19.1607Z" fill="white"/>
<path d="M6.73172 17.6072H7.76744C7.90478 17.6072 8.0365 17.5527 8.13362 17.4556C8.23074 17.3585 8.2853 17.2267 8.2853 17.0894C8.2853 16.952 8.23074 16.8203 8.13362 16.7232C8.0365 16.6261 7.90478 16.5715 7.76744 16.5715H6.73172C6.59438 16.5715 6.46266 16.6261 6.36554 16.7232C6.26843 16.8203 6.21387 16.952 6.21387 17.0894C6.21387 17.2267 6.26843 17.3585 6.36554 17.4556C6.46266 17.5527 6.59438 17.6072 6.73172 17.6072Z" fill="white"/>
<path d="M17.0897 18.125H16.054C15.9166 18.125 15.7849 18.1796 15.6878 18.2767C15.5907 18.3738 15.5361 18.5055 15.5361 18.6429C15.5361 18.7802 15.5907 18.9119 15.6878 19.009C15.7849 19.1062 15.9166 19.1607 16.054 19.1607H17.0897C17.227 19.1607 17.3588 19.1062 17.4559 19.009C17.553 18.9119 17.6076 18.7802 17.6076 18.6429C17.6076 18.5055 17.553 18.3738 17.4559 18.2767C17.3588 18.1796 17.227 18.125 17.0897 18.125Z" fill="white"/>
<path d="M17.0897 16.5715H16.054C15.9166 16.5715 15.7849 16.6261 15.6878 16.7232C15.5907 16.8203 15.5361 16.952 15.5361 17.0894C15.5361 17.2267 15.5907 17.3585 15.6878 17.4556C15.7849 17.5527 15.9166 17.6072 16.054 17.6072H17.0897C17.227 17.6072 17.3588 17.5527 17.4559 17.4556C17.553 17.3585 17.6076 17.2267 17.6076 17.0894C17.6076 16.952 17.553 16.8203 17.4559 16.7232C17.3588 16.6261 17.227 16.5715 17.0897 16.5715Z" fill="white"/>
<path d="M11.3929 7.25007H12.4286C12.5659 7.25007 12.6976 7.19551 12.7948 7.09839C12.8919 7.00128 12.9464 6.86956 12.9464 6.73221C12.9464 6.59487 12.8919 6.46315 12.7948 6.36603C12.6976 6.26892 12.5659 6.21436 12.4286 6.21436H11.3929C11.2555 6.21436 11.1238 6.26892 11.0267 6.36603C10.9296 6.46315 10.875 6.59487 10.875 6.73221C10.875 6.86956 10.9296 7.00128 11.0267 7.09839C11.1238 7.19551 11.2555 7.25007 11.3929 7.25007Z" fill="white"/>
<path d="M11.3929 8.80354H12.4286C12.5659 8.80354 12.6976 8.74898 12.7948 8.65186C12.8919 8.55474 12.9464 8.42302 12.9464 8.28568C12.9464 8.14834 12.8919 8.01662 12.7948 7.9195C12.6976 7.82238 12.5659 7.76782 12.4286 7.76782H11.3929C11.2555 7.76782 11.1238 7.82238 11.0267 7.9195C10.9296 8.01662 10.875 8.14834 10.875 8.28568C10.875 8.42302 10.9296 8.55474 11.0267 8.65186C11.1238 8.74898 11.2555 8.80354 11.3929 8.80354Z" fill="white"/>
</svg>
